<svg width="136" height="53" viewBox="0 0 136 53" fill="none" xmlns="http://www.w3.org/2000/svg">
<g clip-path="url(#clip0_2589_12785)">
<path d="M50.5906 0.317383H2.40937C1.25434 0.317383 0.317993 1.25373 0.317993 2.40876V50.59C0.317993 51.745 1.25434 52.6814 2.40937 52.6814H50.5906C51.7457 52.6814 52.682 51.745 52.682 50.59V2.40876C52.682 1.25373 51.7457 0.317383 50.5906 0.317383Z" fill="#5C2682"/>
<path d="M10.4341 21.4278V23.3623H14.7133V25.1437H10.4341V28.6157H8.46094V19.647H15.2895V21.4278H10.4341Z" fill="white"/>
<path d="M24.0275 27.8348C23.7762 28.0335 23.5033 28.2033 23.214 28.3409C22.9057 28.4858 22.5809 28.5926 22.2467 28.6589C21.8586 28.7352 21.4636 28.7718 21.068 28.7681C20.4393 28.7738 19.8159 28.6518 19.2358 28.4093C18.6893 28.1817 18.193 27.8487 17.7751 27.4293C17.361 27.0087 17.0344 26.51 16.8142 25.9623C16.5817 25.3885 16.4641 24.7746 16.4682 24.1555V24.1301C16.4635 23.5125 16.5811 22.9 16.8142 22.3281C17.0373 21.7801 17.3635 21.2801 17.7751 20.8552C18.1939 20.4262 18.6951 20.0862 19.2485 19.8556C19.8503 19.6076 20.4962 19.4846 21.147 19.4942C21.5315 19.4913 21.9154 19.5255 22.2934 19.5965C22.6161 19.6582 22.9316 19.7527 23.2352 19.8784C23.5108 19.9948 23.773 20.1409 24.0169 20.3141C24.2541 20.4835 24.4769 20.6721 24.6832 20.878L23.426 22.3254C23.1049 22.0303 22.7449 21.7806 22.3559 21.5834C21.9744 21.4002 21.5554 21.3082 21.1322 21.3147C20.7725 21.3114 20.4164 21.3857 20.0881 21.5325C19.7736 21.6734 19.4922 21.8785 19.2618 22.1346C19.0285 22.3953 18.846 22.6973 18.7238 23.025C18.594 23.3711 18.5288 23.7382 18.5314 24.1078V24.1333C18.5292 24.505 18.5944 24.874 18.7238 25.2224C18.8442 25.5512 19.0238 25.8552 19.2538 26.1192C19.4885 26.3846 19.7776 26.5964 20.1014 26.7401C20.4253 26.8838 20.7763 26.956 21.1306 26.9518C21.6433 26.9518 22.0768 26.8578 22.4312 26.6698C22.8154 26.4608 23.1707 26.2024 23.488 25.9013L24.7436 27.1696C24.5221 27.4091 24.2827 27.6315 24.0275 27.8348Z" fill="white"/>
<path d="M33.3418 28.6157V22.7603L30.8174 26.5911H30.7644L28.266 22.7989V28.6157H26.3209V19.647H28.4473L30.8047 23.4397L33.1622 19.647H35.2891V28.6157H33.3418Z" fill="white"/>
<path d="M44.8152 27.2319C44.6565 27.5403 44.4236 27.8045 44.1373 28.0004C43.8151 28.2176 43.4558 28.3741 43.0773 28.462C42.6259 28.5688 42.1632 28.6204 41.6993 28.6157H37.4413V19.647H41.5981C42.5185 19.647 43.2409 19.8564 43.7652 20.2751C44.2896 20.6938 44.5519 21.2575 44.5523 21.9663V21.9944C44.5559 22.2243 44.5236 22.4534 44.4564 22.6733C44.3966 22.861 44.311 23.0394 44.202 23.2033C44.0982 23.3587 43.9733 23.4989 43.831 23.6199C43.6923 23.7388 43.5408 23.8419 43.3794 23.9273C43.8977 24.1241 44.3058 24.3911 44.6037 24.7281C44.9016 25.0652 45.0503 25.532 45.05 26.1284V26.1538C45.0591 26.5268 44.9785 26.8965 44.8152 27.2319ZM42.6045 22.2992C42.6045 22.0002 42.4936 21.7718 42.2717 21.6139C42.0498 21.4559 41.7295 21.377 41.3108 21.377H39.3631V23.2728H41.181C41.6166 23.2728 41.9625 23.198 42.2187 23.0486C42.4749 22.8991 42.603 22.6578 42.603 22.3246L42.6045 22.2992ZM43.1043 25.8867C43.109 25.7488 43.0799 25.6118 43.0195 25.4877C42.9592 25.3635 42.8695 25.256 42.7582 25.1744C42.5275 24.9995 42.1565 24.9112 41.6452 24.9094H39.3662V26.8826H41.711C42.1466 26.8826 42.4883 26.8036 42.736 26.6457C42.9837 26.4877 43.1073 26.2422 43.107 25.909L43.1043 25.8867Z" fill="white"/>
<path d="M45.2799 34.3786V38.6759H8.5946V36.4157C8.59454 36.1482 8.64817 35.8833 8.75245 35.6361C8.85674 35.3889 9.00962 35.1643 9.20236 34.9751C9.39511 34.7859 9.62394 34.6359 9.87579 34.5335C10.1276 34.4312 10.3976 34.3785 10.6701 34.3786L45.2799 34.3786Z" fill="#FAB613"/>
<path d="M8.65308 38.9388H45.2909V43.3304H10.7349C10.4615 43.3305 10.1907 43.2767 9.93803 43.172C9.68538 43.0674 9.45583 42.914 9.26249 42.7206C9.06915 42.5273 8.91582 42.2977 8.81125 42.045C8.70669 41.7923 8.65294 41.5215 8.65308 41.2481V38.9388Z" fill="#FAB613"/>
</g>
<path d="M66.562 19.05C69.064 19.05 70.828 17.61 70.828 15.054C70.828 12.516 69.064 11.076 66.562 11.076H62.512V24H63.394V19.05H66.562ZM66.544 11.832C68.614 11.832 69.964 12.984 69.964 15.072C69.964 17.142 68.614 18.312 66.544 18.312H63.394V11.832H66.544ZM78.6264 24H79.4004V17.772C79.4004 15.648 78.1584 14.388 76.0524 14.388C73.9464 14.388 72.5244 15.756 72.5064 17.844H73.2804C73.2984 16.134 74.3784 15.054 76.0704 15.054C77.6544 15.054 78.5904 16.098 78.5904 17.862V18.744C77.5284 18.654 77.0964 18.636 76.5024 18.636C73.6224 18.636 72.1464 19.572 72.1464 21.426C72.1464 23.1 73.4064 24.18 75.3504 24.18C76.8804 24.18 78.1224 23.388 78.6264 22.092V24ZM72.9744 21.408C72.9744 19.932 74.1264 19.23 76.5384 19.23C77.0784 19.23 77.6904 19.248 78.5904 19.338V20.22C78.5904 22.218 77.3484 23.532 75.4224 23.532C73.9464 23.532 72.9744 22.686 72.9744 21.408ZM88.8097 14.568H87.9457L84.8317 22.83L81.5197 14.568H80.6377L84.3997 23.874L83.0137 27.474H83.8957L88.8097 14.568ZM91.2176 24V18.366C91.2176 16.512 92.4956 15.09 94.1156 15.09C95.7896 15.09 96.7076 16.188 96.7076 18.15V24H97.5356V18.366C97.5356 16.512 98.8316 15.09 100.434 15.09C102.108 15.09 103.026 16.188 103.026 18.15V24H103.854V17.862C103.854 15.684 102.648 14.388 100.668 14.388C99.1736 14.388 97.8956 15.324 97.3556 16.746C96.9956 15.27 95.8796 14.388 94.3496 14.388C92.9636 14.388 91.7756 15.18 91.1816 16.476V14.568H90.3896V24H91.2176ZM110.231 24.198C112.373 24.198 113.939 22.884 114.317 20.814H113.507C113.183 22.506 111.977 23.514 110.231 23.514C108.179 23.514 106.865 21.948 106.757 19.482H114.281C114.407 16.458 112.733 14.388 110.141 14.388C107.729 14.388 105.929 16.44 105.929 19.194C105.929 22.2 107.657 24.198 110.231 24.198ZM110.141 15.036C112.067 15.036 113.291 16.458 113.417 18.834H106.775C106.883 16.566 108.251 15.036 110.141 15.036ZM117.339 18.384C117.339 16.53 118.653 15.09 120.291 15.09C121.965 15.09 122.901 16.206 122.901 18.168V24H123.729V17.862C123.729 15.648 122.487 14.388 120.489 14.388C119.085 14.388 117.879 15.252 117.303 16.494V14.568H116.511V24H117.339V18.384ZM131.048 23.226C130.652 23.37 130.364 23.406 129.986 23.406C128.888 23.406 128.096 22.902 128.096 21.318V15.252H131.138V14.568H128.096V11.76H127.25V14.568H124.928V15.252H127.25V21.48C127.25 23.496 128.438 24.18 129.878 24.18C130.256 24.18 130.598 24.126 131.048 23.964V23.226ZM66.614 43.21C69.946 43.21 71.948 40.718 71.738 37.4H66.488V39.486H68.91C68.616 40.326 67.902 40.97 66.754 40.97C64.934 40.97 64.108 39.668 64.108 37.988C64.108 36.014 65.158 35.104 66.46 35.104C67.482 35.104 68.224 35.678 68.476 36.448H71.612C70.912 34.194 69.05 32.738 66.53 32.738C63.576 32.738 61.392 34.95 61.392 37.918C61.392 41.054 63.688 43.21 66.614 43.21ZM77.3366 43H79.2686V38.352C79.2686 36.448 78.0506 35.328 75.9786 35.328C74.1166 35.328 72.8146 36.476 72.6746 38.226H74.8306C74.9146 37.568 75.3066 37.204 75.9646 37.204C76.6366 37.204 77.0146 37.568 77.0146 38.226V38.59C76.6926 38.534 76.3146 38.506 75.9086 38.506C73.7526 38.506 72.5626 39.304 72.5626 40.774C72.5626 42.202 73.6126 43.14 75.1806 43.14C76.1466 43.14 76.8046 42.874 77.3366 42.272V43ZM74.8166 40.704C74.8166 40.186 75.2506 39.92 76.0626 39.92C76.3706 39.92 76.6506 39.948 77.0146 40.018V40.494C77.0146 41.11 76.5386 41.488 75.7406 41.488C75.1526 41.488 74.8166 41.194 74.8166 40.704ZM85.6778 40.648C85.4118 40.816 85.0338 40.914 84.6418 40.914C83.9838 40.914 83.6758 40.578 83.6758 39.85V37.554H85.7338V35.468H83.6758V33.256H81.2818V35.468H79.8818V37.554H81.2818V40.41C81.2818 42.132 82.2758 43.14 83.9698 43.14C84.6418 43.14 85.1458 43.028 85.6778 42.734V40.648ZM90.0688 43.126C91.9448 43.126 93.2748 42.16 93.7368 40.438H91.3428C91.1328 40.984 90.6848 41.264 90.0128 41.264C89.2428 41.264 88.7948 40.788 88.6688 39.836H93.7788C94.2128 37.358 92.5468 35.328 90.0548 35.328C87.8148 35.328 86.1908 36.966 86.1908 39.22C86.1908 41.558 87.7448 43.126 90.0688 43.126ZM89.9988 37.092C90.7128 37.092 91.1888 37.582 91.2168 38.338H88.6968C88.8648 37.498 89.2848 37.092 89.9988 37.092ZM100.851 43H103.231L105.359 35.468H103.007L101.957 39.598L100.907 35.468H98.5132L97.4072 39.598L96.3572 35.468H94.0192L96.1332 43H98.5272L99.6892 38.73L100.851 43ZM110.354 43H112.286V38.352C112.286 36.448 111.068 35.328 108.996 35.328C107.134 35.328 105.832 36.476 105.692 38.226H107.848C107.932 37.568 108.324 37.204 108.982 37.204C109.654 37.204 110.032 37.568 110.032 38.226V38.59C109.71 38.534 109.332 38.506 108.926 38.506C106.77 38.506 105.58 39.304 105.58 40.774C105.58 42.202 106.63 43.14 108.198 43.14C109.164 43.14 109.822 42.874 110.354 42.272V43ZM107.834 40.704C107.834 40.186 108.268 39.92 109.08 39.92C109.388 39.92 109.668 39.948 110.032 40.018V40.494C110.032 41.11 109.556 41.488 108.758 41.488C108.17 41.488 107.834 41.194 107.834 40.704ZM120.743 35.468H118.335L116.879 40.13L115.255 35.468H112.651L115.591 42.916L114.541 45.702H117.159L120.743 35.468Z" fill="#5C2682"/>
<defs>
<clipPath id="clip0_2589_12785">
<rect width="53" height="53" fill="white"/>
</clipPath>
</defs>
</svg>
