<svg width="20" height="21" viewBox="0 0 20 21" fill="none" xmlns="http://www.w3.org/2000/svg">
<path d="M14.1671 8.14174C14.0109 7.98653 13.7997 7.89941 13.5796 7.89941C13.3594 7.89941 13.1482 7.98653 12.9921 8.14174L10.0004 11.0917L7.0504 8.14174C6.89427 7.98653 6.68306 7.89941 6.4629 7.89941C6.24275 7.89941 6.03154 7.98653 5.8754 8.14174C5.7973 8.21921 5.7353 8.31138 5.693 8.41293C5.65069 8.51448 5.62891 8.6234 5.62891 8.73341C5.62891 8.84342 5.65069 8.95234 5.693 9.05389C5.7353 9.15544 5.7973 9.24761 5.8754 9.32507L9.40874 12.8584C9.48621 12.9365 9.57837 12.9985 9.67992 13.0408C9.78147 13.0831 9.89039 13.1049 10.0004 13.1049C10.1104 13.1049 10.2193 13.0831 10.3209 13.0408C10.4224 12.9985 10.5146 12.9365 10.5921 12.8584L14.1671 9.32507C14.2452 9.24761 14.3072 9.15544 14.3495 9.05389C14.3918 8.95234 14.4136 8.84342 14.4136 8.73341C14.4136 8.6234 14.3918 8.51448 14.3495 8.41293C14.3072 8.31138 14.2452 8.21921 14.1671 8.14174Z" fill="#fff"/>
</svg>
