<svg width="22" height="20" viewBox="0 0 22 20" fill="none" xmlns="http://www.w3.org/2000/svg">
<path d="M15.1667 17.5V15.8333C15.1667 13.9924 13.6743 12.5 11.8334 12.5H5.16671C3.32576 12.5 1.83337 13.9924 1.83337 15.8333V17.5" stroke="#170123" stroke-width="2" stroke-linecap="round" stroke-linejoin="round"/>
<path fill-rule="evenodd" clip-rule="evenodd" d="M8.49996 9.16667C10.3409 9.16667 11.8333 7.67428 11.8333 5.83333C11.8333 3.99238 10.3409 2.5 8.49996 2.5C6.65901 2.5 5.16663 3.99238 5.16663 5.83333C5.16663 7.67428 6.65901 9.16667 8.49996 9.16667Z" stroke="#170123" stroke-width="2" stroke-linecap="round" stroke-linejoin="round"/>
<path d="M20.1666 17.5001V15.8334C20.1655 14.3143 19.1375 12.9882 17.6666 12.6084" stroke="#A1A1A1" stroke-opacity="0.3" stroke-width="2" stroke-linecap="round" stroke-linejoin="round"/>
<path d="M14.3334 2.6084C15.8083 2.98604 16.8399 4.31506 16.8399 5.83757C16.8399 7.36007 15.8083 8.68909 14.3334 9.06673" stroke="#A1A1A1" stroke-opacity="0.3" stroke-width="2" stroke-linecap="round" stroke-linejoin="round"/>
</svg>
