<svg width="355" height="323" viewBox="0 0 355 323" fill="none" xmlns="http://www.w3.org/2000/svg">
<g opacity="0.5">
<path d="M75.4783 -4.89963C74.4202 -4.89963 74.0675 -4.51244 74.0675 -3.35089V68.6656C74.0675 69.0528 74.4202 69.44 75.4783 69.44H141.081C141.433 69.44 141.786 69.0528 141.786 68.6656V-3.35089C141.786 -4.51244 141.433 -4.89963 141.081 -4.89963H75.4783ZM141.081 73.6991H75.4783C73.0094 73.6991 70.8932 71.3759 70.8932 68.6656V-3.35089C70.5405 -6.44837 72.6567 -8.77148 75.4783 -8.77148H141.081C143.55 -8.77148 145.666 -6.44837 145.666 -3.73807V68.6656C145.666 71.3759 143.55 73.6991 141.081 73.6991Z" fill="#B49EC4"/>
<path d="M86.412 8.65285V56.6639H130.147V8.65285H86.412ZM130.852 64.7948H85.0012C81.4742 64.7948 78.6526 61.6973 78.6526 57.4382V7.10411C78.6526 3.23225 81.4742 0.134766 85.0012 0.134766H130.852C134.732 0.134766 137.554 3.23225 137.554 7.10411V57.4382C137.554 61.6973 134.732 64.7948 130.852 64.7948Z" fill="#B49EC4"/>
<path d="M210.21 136.811C209.504 136.811 208.799 137.198 208.799 138.36V200.309C208.799 201.084 209.152 201.858 210.21 201.858H266.642C267.347 201.858 268.053 201.471 268.053 200.309V138.36C268.053 137.585 267.7 136.811 266.642 136.811H210.21ZM266.642 204.956H210.21C207.741 204.956 205.625 202.632 205.625 199.922V138.36C205.625 135.649 207.741 133.326 210.21 133.326H266.642C269.111 133.326 271.227 135.649 271.227 138.36V200.309C271.227 202.632 269.111 204.956 266.642 204.956Z" fill="#D3C6DC"/>
<path d="M218.675 146.879L218.322 147.266V190.631L218.675 191.018H258.178L258.53 190.631V147.653L258.178 147.266H218.675V146.879ZM258.178 196.438H218.675C216.206 196.438 213.737 193.728 213.737 191.018V147.653C213.737 144.943 216.206 142.232 218.675 142.232H258.178C260.647 142.232 263.115 144.943 263.115 147.653V191.018C263.115 193.341 260.647 196.438 258.178 196.438Z" fill="#D3C6DC"/>
<path d="M90.087 69.7883C89.7372 69.7883 89.3874 70.2108 89.3874 70.6332V138.644C89.3874 139.067 89.7372 139.489 90.087 139.489H146.409C146.758 139.489 147.108 139.067 147.108 138.644V70.6332C147.108 70.2108 146.758 69.7883 146.409 69.7883H90.087ZM146.409 143.713H90.087C87.6383 143.713 85.8892 141.601 85.8892 138.644V70.6332C85.8892 67.6762 87.6383 65.1416 90.087 65.1416H146.409C148.857 65.1416 150.956 67.6762 150.956 70.6332V138.644C150.956 141.601 148.857 143.713 146.409 143.713Z" fill="#C4B3D0"/>
<path d="M103.694 104.678C103.341 104.678 102.988 105.065 102.988 105.452V124.811C102.988 125.198 103.341 125.586 103.694 125.586H121.329C121.682 125.586 122.74 125.198 122.74 124.811V105.452C122.74 105.065 122.034 104.678 121.329 104.678H103.694ZM121.329 130.232H103.694C101.225 130.232 99.4614 127.909 99.4614 125.198V105.839C99.4614 103.129 101.225 100.806 103.694 100.806H121.329C123.798 100.806 125.914 103.129 125.914 105.839V125.198C126.267 127.909 124.151 130.232 121.329 130.232Z" fill="#C4B3D0"/>
<path d="M93.4656 93.4461C93.1129 93.4461 92.7602 93.8333 92.7602 94.2204V136.037C92.7602 136.424 93.1129 136.811 93.4656 136.811H131.557C131.91 136.811 132.968 136.424 132.968 136.037V94.6076C132.968 94.2204 132.263 93.8333 131.557 93.8333H93.4656V93.4461ZM131.557 141.457H93.4656C90.9967 141.457 89.2332 139.134 89.2332 136.424V94.6076C89.2332 91.8973 90.9967 89.5742 93.4656 89.5742H131.557C134.026 89.5742 136.142 91.8973 136.142 94.6076V136.424C136.142 139.134 134.026 141.457 131.557 141.457Z" fill="#C4B3D0"/>
<path d="M156.247 133.716L155.894 134.103V176.693L156.247 177.468H195.044L195.749 176.693V134.103L195.044 133.716H156.247ZM195.044 182.501H156.247C153.778 182.501 151.309 180.178 151.309 177.08V134.49C151.309 131.392 153.778 129.069 156.247 129.069H195.044C197.866 129.069 199.982 131.392 199.982 134.49V177.08C200.335 180.178 198.218 182.501 195.044 182.501Z" fill="#C4B3D0"/>
<path d="M107.927 161.979V198.374H141.081V161.979H107.927ZM141.081 204.182H107.927C105.105 204.182 102.284 201.472 102.284 197.987V161.591C102.284 158.494 104.753 155.396 107.927 155.396H141.081C143.902 155.396 146.724 158.107 146.724 161.591V197.987C146.371 201.472 143.902 204.182 141.081 204.182Z" fill="#C7B8D3"/>
<path d="M155.894 191.017C155.542 191.017 155.189 191.404 155.189 192.566V238.254C155.189 238.641 155.542 239.802 155.894 239.802H197.513C198.218 239.802 198.924 239.028 198.924 238.254V192.566C198.924 191.791 198.571 191.017 197.513 191.017H155.894ZM197.16 243.287H155.894C153.425 243.287 151.309 240.964 151.309 238.254V192.566C151.309 189.855 153.425 187.532 155.894 187.532H197.513C199.982 187.532 202.098 189.855 202.098 192.566V238.254C201.745 240.964 199.629 243.287 197.16 243.287Z" fill="#E2DAE8"/>
<path d="M170.707 207.279C170.354 207.279 169.296 207.666 169.296 208.827V221.992C169.296 222.766 170.001 223.54 170.707 223.54H183.051C183.404 223.54 183.757 223.153 183.757 221.992V208.827C183.757 208.053 183.404 207.279 183.051 207.279H170.707ZM182.699 227.025H170.354C167.885 227.025 165.769 224.702 165.769 221.992V208.827C165.769 206.117 167.885 203.794 170.354 203.794H182.699C184.815 203.794 186.931 206.117 186.931 208.827V221.992C186.931 224.702 184.815 227.025 182.699 227.025Z" fill="#E2DAE8"/>
<path d="M162.948 199.149C162.243 199.149 161.538 199.536 161.538 199.924V230.124C161.538 230.898 161.89 231.673 162.948 231.673H190.459C190.812 231.673 191.165 231.286 191.165 230.124V199.924C191.165 199.536 190.812 199.149 190.459 199.149H162.948ZM190.459 235.157H162.948C160.479 235.157 158.363 232.834 158.363 230.124V199.924C158.363 197.213 160.479 195.277 162.948 195.277H190.459C192.928 195.277 195.044 197.213 195.044 199.924V230.124C195.044 232.834 192.928 235.157 190.459 235.157Z" fill="#E2DAE8"/>
<path d="M4.93782 -27.741C4.58512 -27.741 4.58512 -27.3538 4.58512 -26.9666V34.9831C4.58512 35.3703 4.58512 35.7575 4.93782 35.7575H61.7227C61.7227 35.7575 62.0754 35.3703 62.0754 34.9831V-26.9666C62.0754 -27.3538 61.7227 -27.741 61.7227 -27.741H4.93782ZM61.7227 40.7909H4.93782C2.11621 40.7909 0 38.4678 0 35.3703V-26.5794C0 -29.6769 2.11621 -32 4.93782 -32H61.7227C64.1916 -32 66.3078 -29.6769 66.3078 -26.5794V35.3703C66.3078 38.4678 64.1916 40.7909 61.7227 40.7909Z" fill="#D3C6DC"/>
<path d="M14.1077 -18.0637C13.755 -18.0637 13.4023 -18.0637 13.4023 -17.6765V25.6882C13.4023 26.0754 13.755 26.4626 14.1077 26.4626H52.9049C53.2576 26.4626 53.6103 26.0754 53.6103 25.6882V-17.2894C53.6103 -17.6765 53.2576 -17.6765 52.9049 -17.6765H14.1077V-18.0637ZM52.9049 30.7217H14.1077C11.2861 30.7217 9.16991 28.3985 9.16991 25.6882V-17.2894C8.81721 -20.3868 10.9334 -22.71 14.1077 -22.71H52.9049C55.3738 -22.71 57.49 -20.3868 57.49 -17.6765V25.6882C57.49 28.3985 55.3738 30.7217 52.9049 30.7217Z" fill="#D3C6DC"/>
<path d="M23.9831 -7.61099C23.2777 -7.61099 22.2196 -6.83662 22.2196 -5.67506V14.4586C22.2196 15.233 22.925 16.3945 23.9831 16.3945H42.6763C43.3817 16.3945 44.0871 15.6201 44.0871 14.4586V-5.67506C44.0871 -6.44943 43.7344 -7.61099 42.6763 -7.61099H23.9831ZM42.6763 18.7176H23.9831C21.8669 18.7176 19.7507 16.7817 19.7507 14.0714V-5.67506C19.7507 -8.38536 21.8669 -10.3213 23.9831 -10.3213H42.6763C44.7925 -10.3213 46.556 -8.38536 46.556 -5.67506V14.4586C46.556 16.7817 44.7925 18.7176 42.6763 18.7176Z" fill="#D3C6DC"/>
<path d="M58.5485 208.053C58.1958 208.053 57.1377 208.44 57.1377 209.601V253.353C57.1377 254.128 57.8431 254.902 58.5485 254.902H98.7564C99.1091 254.902 99.4618 254.515 99.4618 253.353V209.214C99.4618 208.44 99.1091 207.665 98.7564 207.665H58.5485V208.053ZM98.7564 257.999H58.5485C56.0796 257.999 53.9634 255.676 53.9634 252.966V209.214C53.9634 206.504 56.0796 204.181 58.5485 204.181H98.7564C100.873 204.181 102.989 206.504 102.989 209.214V252.966C102.989 255.676 100.873 257.999 98.7564 257.999Z" fill="#F0ECF3"/>
<path d="M64.8977 215.412L64.545 216.186V246L64.8977 246.387H91.703L92.4084 246V216.186L91.703 215.412H64.8977ZM91.703 251.42H64.545C62.0761 251.42 59.6072 249.097 59.6072 246V216.186C59.6072 213.089 62.0761 210.766 64.545 210.766H91.703C94.5246 210.766 96.6408 213.089 96.6408 216.186V246C96.9935 249.097 94.8773 251.42 91.703 251.42Z" fill="#F0ECF3"/>
<path d="M35.9762 134.49C35.6235 134.49 35.2708 134.877 35.2708 136.038V172.821C35.2708 173.208 35.6235 174.37 35.9762 174.37H69.8355C70.1883 174.37 70.541 173.595 70.541 172.821V136.038C70.541 135.264 70.1883 134.49 69.8355 134.49H35.9762ZM69.8355 177.854H35.9762C33.5073 177.854 31.3911 175.531 31.3911 172.821V136.038C31.3911 133.328 33.5073 131.005 35.9762 131.005H69.8355C72.3045 131.005 74.068 133.328 74.068 136.038V172.821C74.068 175.531 72.3045 177.854 69.8355 177.854Z" fill="#B49EC4"/>
<path d="M43.0294 141.846C42.324 141.846 41.6186 142.62 41.6186 143.394V164.689C41.6186 165.464 41.9713 166.238 43.0294 166.238H62.4279C63.1333 166.238 63.8387 165.851 63.8387 164.689V143.394C63.8387 143.007 63.486 141.846 62.4279 141.846H43.0294ZM62.7806 169.336H43.3821C40.9132 169.336 39.1497 167.4 39.1497 164.689V143.394C39.1497 141.071 40.9132 138.748 43.3821 138.748H62.7806C64.8968 138.748 67.0131 141.071 67.0131 143.394V164.689C67.0131 167.4 64.8968 169.336 62.7806 169.336Z" fill="#5C2684"/>
</g>
<g opacity="0.5">
<path d="M275.478 60.1004C274.42 60.1004 274.068 60.4876 274.068 61.6491V133.666C274.068 134.053 274.42 134.44 275.478 134.44H341.081C341.433 134.44 341.786 134.053 341.786 133.666V61.6491C341.786 60.4876 341.433 60.1004 341.081 60.1004H275.478ZM341.081 138.699H275.478C273.009 138.699 270.893 136.376 270.893 133.666V61.6491C270.54 58.5516 272.657 56.2285 275.478 56.2285H341.081C343.55 56.2285 345.666 58.5516 345.666 61.2619V133.666C345.666 136.376 343.55 138.699 341.081 138.699Z" fill="#B49EC4"/>
<path d="M286.412 73.6529V121.664H330.147V73.6529H286.412ZM330.852 129.795H285.001C281.474 129.795 278.653 126.697 278.653 122.438V72.1041C278.653 68.2323 281.474 65.1348 285.001 65.1348H330.852C334.732 65.1348 337.554 68.2323 337.554 72.1041V122.438C337.554 126.697 334.732 129.795 330.852 129.795Z" fill="#B49EC4"/>
<path d="M290.087 134.788C289.737 134.788 289.387 135.211 289.387 135.633V203.644C289.387 204.067 289.737 204.489 290.087 204.489H346.409C346.758 204.489 347.108 204.067 347.108 203.644V135.633C347.108 135.211 346.758 134.788 346.409 134.788H290.087ZM346.409 208.713H290.087C287.638 208.713 285.889 206.601 285.889 203.644V135.633C285.889 132.676 287.638 130.142 290.087 130.142H346.409C348.857 130.142 350.956 132.676 350.956 135.633V203.644C350.956 206.601 348.857 208.713 346.409 208.713Z" fill="#C4B3D0"/>
<path d="M303.694 169.678C303.341 169.678 302.988 170.065 302.988 170.452V189.811C302.988 190.198 303.341 190.586 303.694 190.586H321.329C321.682 190.586 322.74 190.198 322.74 189.811V170.452C322.74 170.065 322.034 169.678 321.329 169.678H303.694ZM321.329 195.232H303.694C301.225 195.232 299.461 192.909 299.461 190.198V170.839C299.461 168.129 301.225 165.806 303.694 165.806H321.329C323.798 165.806 325.914 168.129 325.914 170.839V190.198C326.267 192.909 324.151 195.232 321.329 195.232Z" fill="#C4B3D0"/>
<path d="M293.466 158.446C293.113 158.446 292.76 158.833 292.76 159.22V201.037C292.76 201.424 293.113 201.811 293.466 201.811H331.557C331.91 201.811 332.968 201.424 332.968 201.037V159.608C332.968 159.22 332.263 158.833 331.557 158.833H293.466V158.446ZM331.557 206.457H293.466C290.997 206.457 289.233 204.134 289.233 201.424V159.608C289.233 156.897 290.997 154.574 293.466 154.574H331.557C334.026 154.574 336.142 156.897 336.142 159.608V201.424C336.142 204.134 334.026 206.457 331.557 206.457Z" fill="#C4B3D0"/>
<path d="M356.247 198.716L355.894 199.103V241.693L356.247 242.468H395.044L395.749 241.693V199.103L395.044 198.716H356.247ZM395.044 247.501H356.247C353.778 247.501 351.309 245.178 351.309 242.08V199.49C351.309 196.392 353.778 194.069 356.247 194.069H395.044C397.866 194.069 399.982 196.392 399.982 199.49V242.08C400.335 245.178 398.218 247.501 395.044 247.501Z" fill="#C4B3D0"/>
<path d="M307.927 226.979V263.374H341.081V226.979H307.927ZM341.081 269.182H307.927C305.105 269.182 302.284 266.472 302.284 262.987V226.591C302.284 223.494 304.753 220.396 307.927 220.396H341.081C343.902 220.396 346.724 223.107 346.724 226.591V262.987C346.371 266.472 343.902 269.182 341.081 269.182Z" fill="#C7B8D3"/>
<path d="M355.894 256.017C355.542 256.017 355.189 256.404 355.189 257.566V303.254C355.189 303.641 355.542 304.802 355.894 304.802H397.513C398.218 304.802 398.924 304.028 398.924 303.254V257.566C398.924 256.791 398.571 256.017 397.513 256.017H355.894ZM397.16 308.287H355.894C353.425 308.287 351.309 305.964 351.309 303.254V257.566C351.309 254.855 353.425 252.532 355.894 252.532H397.513C399.982 252.532 402.098 254.855 402.098 257.566V303.254C401.745 305.964 399.629 308.287 397.16 308.287Z" fill="#E2DAE8"/>
<path d="M204.938 37.259C204.585 37.259 204.585 37.6462 204.585 38.0334V99.9831C204.585 100.37 204.585 100.757 204.938 100.757H261.723C261.723 100.757 262.075 100.37 262.075 99.9831V38.0334C262.075 37.6462 261.723 37.259 261.723 37.259H204.938ZM261.723 105.791H204.938C202.116 105.791 200 103.468 200 100.37V38.4206C200 35.3231 202.116 33 204.938 33H261.723C264.192 33 266.308 35.3231 266.308 38.4206V100.37C266.308 103.468 264.192 105.791 261.723 105.791Z" fill="#D3C6DC"/>
<path d="M214.108 46.9363C213.755 46.9363 213.402 46.9363 213.402 47.3235V90.6882C213.402 91.0754 213.755 91.4626 214.108 91.4626H252.905C253.258 91.4626 253.61 91.0754 253.61 90.6882V47.7106C253.61 47.3235 253.258 47.3235 252.905 47.3235H214.108V46.9363ZM252.905 95.7217H214.108C211.286 95.7217 209.17 93.3985 209.17 90.6882V47.7106C208.817 44.6132 210.933 42.29 214.108 42.29H252.905C255.374 42.29 257.49 44.6132 257.49 47.3235V90.6882C257.49 93.3985 255.374 95.7217 252.905 95.7217Z" fill="#D3C6DC"/>
<path d="M223.983 57.389C223.278 57.389 222.22 58.1634 222.22 59.3249V79.4586C222.22 80.233 222.925 81.3945 223.983 81.3945H242.676C243.382 81.3945 244.087 80.6201 244.087 79.4586V59.3249C244.087 58.5506 243.734 57.389 242.676 57.389H223.983ZM242.676 83.7176H223.983C221.867 83.7176 219.751 81.7817 219.751 79.0714V59.3249C219.751 56.6146 221.867 54.6787 223.983 54.6787H242.676C244.793 54.6787 246.556 56.6146 246.556 59.3249V79.4586C246.556 81.7817 244.793 83.7176 242.676 83.7176Z" fill="#D3C6DC"/>
<path d="M258.548 273.053C258.196 273.053 257.138 273.44 257.138 274.601V318.353C257.138 319.128 257.843 319.902 258.548 319.902H298.756C299.109 319.902 299.462 319.515 299.462 318.353V274.214C299.462 273.44 299.109 272.665 298.756 272.665H258.548V273.053ZM298.756 322.999H258.548C256.08 322.999 253.963 320.676 253.963 317.966V274.214C253.963 271.504 256.08 269.181 258.548 269.181H298.756C300.873 269.181 302.989 271.504 302.989 274.214V317.966C302.989 320.676 300.873 322.999 298.756 322.999Z" fill="#F0ECF3"/>
<path d="M264.898 280.412L264.545 281.186V311L264.898 311.387H291.703L292.408 311V281.186L291.703 280.412H264.898ZM291.703 316.42H264.545C262.076 316.42 259.607 314.097 259.607 311V281.186C259.607 278.089 262.076 275.766 264.545 275.766H291.703C294.525 275.766 296.641 278.089 296.641 281.186V311C296.994 314.097 294.877 316.42 291.703 316.42Z" fill="#F0ECF3"/>
<path d="M235.976 199.49C235.624 199.49 235.271 199.877 235.271 201.038V237.821C235.271 238.208 235.624 239.37 235.976 239.37H269.836C270.188 239.37 270.541 238.595 270.541 237.821V201.038C270.541 200.264 270.188 199.49 269.836 199.49H235.976ZM269.836 242.854H235.976C233.507 242.854 231.391 240.531 231.391 237.821V201.038C231.391 198.328 233.507 196.005 235.976 196.005H269.836C272.304 196.005 274.068 198.328 274.068 201.038V237.821C274.068 240.531 272.304 242.854 269.836 242.854Z" fill="#B49EC4"/>
<path d="M243.029 206.846C242.324 206.846 241.619 207.62 241.619 208.394V229.689C241.619 230.464 241.971 231.238 243.029 231.238H262.428C263.133 231.238 263.839 230.851 263.839 229.689V208.394C263.839 208.007 263.486 206.846 262.428 206.846H243.029ZM262.781 234.336H243.382C240.913 234.336 239.15 232.4 239.15 229.689V208.394C239.15 206.071 240.913 203.748 243.382 203.748H262.781C264.897 203.748 267.013 206.071 267.013 208.394V229.689C267.013 232.4 264.897 234.336 262.781 234.336Z" fill="#5C2684"/>
</g>
</svg>
