<svg width="20" height="20" viewBox="0 0 20 20" fill="none" xmlns="http://www.w3.org/2000/svg">
<path d="M15.8327 5.83333H13.3327V5C13.3327 4.33696 13.0693 3.70107 12.6005 3.23223C12.1316 2.76339 11.4957 2.5 10.8327 2.5H9.16602C8.50297 2.5 7.86709 2.76339 7.39825 3.23223C6.92941 3.70107 6.66602 4.33696 6.66602 5V5.83333H4.16602C3.50297 5.83333 2.86709 6.09673 2.39825 6.56557C1.92941 7.03441 1.66602 7.67029 1.66602 8.33333V15C1.66602 15.663 1.92941 16.2989 2.39825 16.7678C2.86709 17.2366 3.50297 17.5 4.16602 17.5H15.8327C16.4957 17.5 17.1316 17.2366 17.6005 16.7678C18.0693 16.2989 18.3327 15.663 18.3327 15V8.33333C18.3327 7.67029 18.0693 7.03441 17.6005 6.56557C17.1316 6.09673 16.4957 5.83333 15.8327 5.83333ZM8.33268 5C8.33268 4.77899 8.42048 4.56702 8.57676 4.41074C8.73304 4.25446 8.945 4.16667 9.16602 4.16667H10.8327C11.0537 4.16667 11.2657 4.25446 11.4219 4.41074C11.5782 4.56702 11.666 4.77899 11.666 5V5.83333H8.33268V5ZM3.33268 8.33333C3.33268 8.11232 3.42048 7.90036 3.57676 7.74408C3.73304 7.5878 3.945 7.5 4.16602 7.5H4.99935C4.99935 7.94203 4.82375 8.36595 4.51119 8.67851C4.19863 8.99107 3.77471 9.16667 3.33268 9.16667V8.33333ZM4.16602 15.8333C3.945 15.8333 3.73304 15.7455 3.57676 15.5893C3.42048 15.433 3.33268 15.221 3.33268 15V14.1667C3.77471 14.1667 4.19863 14.3423 4.51119 14.6548C4.82375 14.9674 4.99935 15.3913 4.99935 15.8333H4.16602ZM16.666 15C16.666 15.221 16.5782 15.433 16.4219 15.5893C16.2657 15.7455 16.0537 15.8333 15.8327 15.8333H14.9993C14.9993 15.3913 15.1749 14.9674 15.4875 14.6548C15.8001 14.3423 16.224 14.1667 16.666 14.1667V15ZM16.666 12.5C15.782 12.5 14.9341 12.8512 14.309 13.4763C13.6839 14.1014 13.3327 14.9493 13.3327 15.8333H6.66602C6.66602 14.9493 6.31483 14.1014 5.68971 13.4763C5.06458 12.8512 4.21674 12.5 3.33268 12.5V10.8333C4.21674 10.8333 5.06458 10.4821 5.68971 9.85702C6.31483 9.2319 6.66602 8.38405 6.66602 7.5H13.3327C13.3327 8.38405 13.6839 9.2319 14.309 9.85702C14.9341 10.4821 15.782 10.8333 16.666 10.8333V12.5ZM16.666 9.16667C16.224 9.16667 15.8001 8.99107 15.4875 8.67851C15.1749 8.36595 14.9993 7.94203 14.9993 7.5H15.8327C16.0537 7.5 16.2657 7.5878 16.4219 7.74408C16.5782 7.90036 16.666 8.11232 16.666 8.33333V9.16667ZM9.99935 9.16667C9.5049 9.16667 9.02155 9.31329 8.61042 9.58799C8.1993 9.8627 7.87887 10.2531 7.68965 10.71C7.50043 11.1668 7.45092 11.6694 7.54739 12.1544C7.64385 12.6393 7.88195 13.0848 8.23158 13.4344C8.58121 13.7841 9.02667 14.0222 9.51162 14.1186C9.99658 14.2151 10.4992 14.1656 10.9561 13.9764C11.4129 13.7871 11.8033 13.4667 12.078 13.0556C12.3527 12.6445 12.4993 12.1611 12.4993 11.6667C12.4993 11.0036 12.236 10.3677 11.7671 9.8989C11.2983 9.43006 10.6624 9.16667 9.99935 9.16667ZM9.99935 12.5C9.83453 12.5 9.67342 12.4511 9.53637 12.3596C9.39933 12.268 9.29252 12.1378 9.22945 11.9856C9.16638 11.8333 9.14987 11.6657 9.18203 11.5041C9.21418 11.3424 9.29355 11.194 9.41009 11.0774C9.52664 10.9609 9.67512 10.8815 9.83677 10.8493C9.99842 10.8172 10.166 10.8337 10.3183 10.8968C10.4705 10.9598 10.6007 11.0667 10.6922 11.2037C10.7838 11.3407 10.8327 11.5018 10.8327 11.6667C10.8327 11.8877 10.7449 12.0996 10.5886 12.2559C10.4323 12.4122 10.2204 12.5 9.99935 12.5Z" fill="#170123"/>
</svg>
