<svg width="24" height="24" viewBox="0 0 24 24" fill="none" xmlns="http://www.w3.org/2000/svg">
<path d="M11.9992 16.6687C14.539 16.6687 16.5995 14.6114 16.6009 12.0696C16.5995 9.52995 14.5389 7.4707 11.9992 7.4707C9.45805 7.4707 7.40015 9.52995 7.40015 12.0703C7.40015 14.6114 9.45805 16.6687 11.9992 16.6687ZM9.48311 9.55113C10.1541 8.88137 11.0487 8.51096 11.9986 8.51096C12.9518 8.51029 13.8443 8.88145 14.5179 9.55113C15.1883 10.2255 15.5581 11.12 15.5581 12.0697C15.5581 13.0222 15.1883 13.9154 14.5166 14.5885C13.8442 15.2609 12.9497 15.6293 11.9985 15.6287C11.0486 15.6287 10.1547 15.2602 9.48302 14.5885C8.81073 13.9154 8.44091 13.0216 8.44091 12.0697C8.441 11.1193 8.81081 10.2255 9.48311 9.55113Z" fill="#2F0248"/>
<path d="M18.481 0H5.5212L5.54035 5.63649H4.49951V0.0955126C4.13956 0.163434 3.79287 0.264262 3.46001 0.398756V5.63641H2.41916L2.41848 0.953605C0.959053 1.94695 0.00156719 3.62061 0.000976562 5.51972V7.47089H7.47304C8.63455 6.3325 10.2237 5.63109 11.9804 5.63042C13.7345 5.63109 15.3245 6.33242 16.4846 7.47089L23.9997 7.46954V5.51913C23.9996 2.47176 21.5296 0.000590624 18.481 0ZM21.1394 5.6305L18.4177 5.62983V2.91068H21.1407L21.1394 5.6305Z" fill="#2F0248"/>
<path d="M18.4168 12.0701C18.4168 15.6263 15.5343 18.5103 11.9794 18.5109C8.42188 18.5103 5.53938 15.6263 5.53938 12.0701C5.53938 10.7545 5.9329 9.53176 6.61246 8.51133H0V18.4806C0.000674999 21.5279 2.47092 23.999 5.52031 23.9997H18.4795C21.5288 23.999 23.9987 21.5279 23.9987 18.4799V8.51074L17.3438 8.51142C18.024 9.53176 18.4162 10.7546 18.4168 12.0701Z" fill="#2F0248"/>
</svg>
