<svg width="348" height="348" viewBox="0 0 348 348" fill="none" xmlns="http://www.w3.org/2000/svg">
<path d="M348 266.15H0V266.324H348V266.15Z" fill="#EBEBEB"/>
<path d="M313.13 277.349H290.079V277.523H313.13V277.349Z" fill="#EBEBEB"/>
<path d="M230.529 279.242H224.481V279.416H230.529V279.242Z" fill="#EBEBEB"/>
<path d="M289.383 270.89H276.026V271.064H289.383V270.89Z" fill="#EBEBEB"/>
<path d="M66.5724 272.06H36.5122V272.234H66.5724V272.06Z" fill="#EBEBEB"/>
<path d="M77.1796 272.06H72.7739V272.234H77.1796V272.06Z" fill="#EBEBEB"/>
<path d="M156.704 274.997H91.5032V275.171H156.704V274.997Z" fill="#EBEBEB"/>
<path d="M164.952 235.109H30.5614C29.5086 235.107 28.4996 234.688 27.7558 233.943C27.012 233.198 26.5942 232.188 26.5942 231.135V42.2196C26.6034 41.1729 27.0252 40.172 27.768 39.4344C28.5108 38.6968 29.5146 38.2821 30.5614 38.2803H164.952C166.006 38.2803 167.017 38.699 167.762 39.4443C168.508 40.1896 168.926 41.2004 168.926 42.2544V231.135C168.926 232.189 168.508 233.2 167.762 233.945C167.017 234.69 166.006 235.109 164.952 235.109ZM30.5614 38.4195C29.5548 38.4213 28.59 38.8225 27.8788 39.535C27.1677 40.2474 26.7682 41.213 26.7682 42.2196V231.135C26.7682 232.142 27.1677 233.107 27.8788 233.82C28.59 234.532 29.5548 234.933 30.5614 234.935H164.952C165.959 234.933 166.925 234.532 167.637 233.82C168.349 233.108 168.75 232.142 168.752 231.135V42.2196C168.75 41.2123 168.349 40.2468 167.637 39.5345C166.925 38.8223 165.959 38.4213 164.952 38.4195H30.5614Z" fill="#EBEBEB"/>
<path d="M315.504 235.109H181.106C180.053 235.107 179.043 234.688 178.298 233.943C177.553 233.198 177.134 232.188 177.132 231.135V42.2196C177.143 41.1722 177.566 40.1714 178.31 39.434C179.054 38.6966 180.059 38.282 181.106 38.2803H315.504C316.549 38.2839 317.551 38.6994 318.293 39.4368C319.034 40.1742 319.455 41.1741 319.464 42.2196V231.135C319.464 232.187 319.047 233.195 318.305 233.94C317.562 234.685 316.555 235.105 315.504 235.109ZM181.106 38.4195C180.099 38.4213 179.133 38.8223 178.421 39.5345C177.709 40.2468 177.308 41.2123 177.306 42.2196V231.135C177.308 232.142 177.709 233.108 178.421 233.82C179.133 234.532 180.099 234.933 181.106 234.935H315.504C316.511 234.933 317.476 234.532 318.189 233.82C318.901 233.108 319.302 232.142 319.304 231.135V42.2196C319.302 41.2123 318.901 40.2468 318.189 39.5345C317.476 38.8223 316.511 38.4213 315.504 38.4195H181.106Z" fill="#EBEBEB"/>
<path d="M179.811 266.15H199.919V194.518H179.811V266.15Z" fill="#E6E6E6"/>
<path d="M183.625 266.151H179.804V259.511H187.627L183.625 266.151Z" fill="#F0F0F0"/>
<path d="M294.533 266.15H314.641V194.518H294.533V266.15Z" fill="#D7D6D6"/>
<path d="M179.812 264.403H297.867V194.511H179.812V264.403Z" fill="#F0F0F0"/>
<path d="M258.94 198.666V260.526H293.935V198.666H258.94Z" fill="#E6E6E6"/>
<path d="M272.978 202.216H279.896C281.437 202.189 282.951 201.816 284.328 201.124C285.706 200.432 286.909 199.44 287.851 198.221H265.022C265.965 199.439 267.169 200.431 268.546 201.122C269.923 201.813 271.437 202.187 272.978 202.216Z" fill="#F0F0F0"/>
<path d="M221.335 198.673V260.534H256.33V198.673H221.335Z" fill="#E6E6E6"/>
<path d="M235.018 202.216H241.943C243.478 202.183 244.986 201.808 246.357 201.117C247.727 200.425 248.926 199.436 249.864 198.221H227.07C228.011 199.439 229.214 200.431 230.589 201.123C231.965 201.814 233.479 202.188 235.018 202.216Z" fill="#F0F0F0"/>
<path d="M183.73 198.673V260.534H218.725V198.673H183.73Z" fill="#E6E6E6"/>
<path d="M197.414 202.216H204.339C205.877 202.187 207.389 201.812 208.764 201.121C210.138 200.43 211.34 199.438 212.28 198.221H189.465C190.406 199.439 191.609 200.431 192.985 201.123C194.361 201.814 195.874 202.188 197.414 202.216Z" fill="#F0F0F0"/>
<path d="M294.046 266.151H297.86V259.511H290.037L294.046 266.151Z" fill="#F0F0F0"/>
<path d="M53.3485 175.894L188.254 175.894V61.0327L53.3485 61.0327V175.894Z" fill="#E6E6E6"/>
<path d="M50.3138 175.894L186.932 175.894V61.0327L50.3138 61.0327V175.894Z" fill="#F5F5F5"/>
<path d="M181.482 170.381V66.5444L55.7635 66.5444V170.381H181.482Z" fill="#FAFAFA"/>
<path d="M166.059 170.381L116.58 66.5444H99.7717L149.25 170.381H166.059Z" fill="white"/>
<path d="M144.49 170.381L95.004 66.5444H83.4365L132.915 170.381H144.49Z" fill="white"/>
<path d="M102.451 170.374V66.5376H95.9508V170.374H102.451Z" fill="#E6E6E6"/>
<path d="M145.659 170.374V66.5376H139.158V170.374H145.659Z" fill="#E6E6E6"/>
<path d="M101.275 173.882V62.4453H93.0549V173.882H101.275Z" fill="#F5F5F5"/>
<path d="M144.483 173.882V62.4453H136.263V173.882H144.483Z" fill="#F5F5F5"/>
<path d="M56.3413 170.381L56.3413 66.5444H55.7636L55.7636 170.381H56.3413Z" fill="#E6E6E6"/>
<path d="M48.0239 53.9399H194.184C194.368 53.9399 194.545 54.0133 194.676 54.1438C194.807 54.2743 194.88 54.4514 194.88 54.6359C194.88 54.8205 194.807 54.9976 194.676 55.1281C194.545 55.2586 194.368 55.3319 194.184 55.3319H48.0239C47.8393 55.3319 47.6623 55.2586 47.5317 55.1281C47.4012 54.9976 47.3279 54.8205 47.3279 54.6359C47.3279 54.4514 47.4012 54.2743 47.5317 54.1438C47.6623 54.0133 47.8393 53.9399 48.0239 53.9399Z" fill="#E6E6E6"/>
<path d="M188.254 58.5824C188.506 58.5806 188.746 58.4793 188.924 58.3007C189.101 58.1221 189.2 57.8806 189.2 57.6289V55.5896C189.2 55.3386 189.101 55.0978 188.923 54.9203C188.746 54.7428 188.505 54.6431 188.254 54.6431C188.002 54.6431 187.761 54.7426 187.582 54.9199C187.403 55.0972 187.302 55.3379 187.3 55.5896V57.6289C187.302 57.8812 187.403 58.1227 187.582 58.3011C187.76 58.4796 188.002 58.5806 188.254 58.5824Z" fill="#E6E6E6"/>
<path d="M58.6241 58.5824C58.8764 58.5806 59.1179 58.4796 59.2963 58.3011C59.4747 58.1227 59.5757 57.8812 59.5776 57.6289V55.5896C59.5757 55.3379 59.4745 55.0972 59.2958 54.9199C59.1172 54.7426 58.8757 54.6431 58.6241 54.6431C58.373 54.6431 58.1322 54.7428 57.9547 54.9203C57.7772 55.0978 57.6775 55.3386 57.6775 55.5896V57.6289C57.6775 57.8806 57.777 58.1221 57.9543 58.3007C58.1316 58.4793 58.3724 58.5806 58.6241 58.5824Z" fill="#E6E6E6"/>
<path opacity="0.6" d="M48.2467 111.652L184.767 111.652V54.643L48.2467 54.643V111.652Z" fill="#E0E0E0"/>
<path d="M132.407 197.435H113.413V208.626H132.407V197.435Z" fill="#D7D6D6"/>
<path d="M37.9736 208.633H113.413V197.441H37.9736V208.633Z" fill="#F5F5F5"/>
<path d="M132.407 215.586H113.413V226.778H132.407V215.586Z" fill="#D7D6D6"/>
<path d="M37.9736 226.784H113.413V215.593H37.9736V226.784Z" fill="#F5F5F5"/>
<path d="M132.407 233.745H113.413V244.936H132.407V233.745Z" fill="#D7D6D6"/>
<path d="M37.9736 244.937H113.413V233.745H37.9736V244.937Z" fill="#F5F5F5"/>
<path d="M125.558 266.15H129.066V208.633H125.558V266.15Z" fill="#D7D6D6"/>
<path d="M109.905 266.15H113.413V208.633H109.905V266.15Z" fill="#F5F5F5"/>
<path d="M37.9736 266.15H41.4814L41.4814 208.633H37.9736L37.9736 266.15Z" fill="#F5F5F5"/>
<path d="M174 297.582C248.529 297.582 308.947 294.054 308.947 289.703C308.947 285.352 248.529 281.824 174 281.824C99.4705 281.824 39.0525 285.352 39.0525 289.703C39.0525 294.054 99.4705 297.582 174 297.582Z" fill="#F5F5F5"/>
<path d="M275.616 258.105H162.586C161.475 258.118 160.374 257.898 159.353 257.459C158.332 257.019 157.416 256.37 156.662 255.554C155.908 254.738 155.334 253.773 154.977 252.72C154.62 251.668 154.488 250.553 154.589 249.446L168.432 67.9504C168.648 65.6121 169.719 63.4355 171.44 61.8378C173.161 60.2401 175.411 59.3337 177.759 59.2922H290.789C291.901 59.2777 293.003 59.497 294.024 59.936C295.045 60.3749 295.962 61.0237 296.716 61.8402C297.47 62.6566 298.044 63.6225 298.401 64.6752C298.758 65.7278 298.889 66.8437 298.786 67.9504L284.943 249.446C284.726 251.784 283.654 253.96 281.934 255.557C280.213 257.155 277.964 258.062 275.616 258.105Z" fill="#5C068C"/>
<path d="M275.616 258.105H162.586C161.475 258.118 160.374 257.898 159.353 257.459C158.332 257.019 157.416 256.37 156.662 255.554C155.908 254.738 155.334 253.773 154.977 252.72C154.62 251.668 154.488 250.553 154.589 249.446L168.432 67.9504C168.648 65.6121 169.719 63.4355 171.44 61.8378C173.161 60.2401 175.411 59.3337 177.759 59.2922H290.789C291.901 59.2777 293.003 59.497 294.024 59.936C295.045 60.3749 295.962 61.0237 296.716 61.8402C297.47 62.6566 298.044 63.6225 298.401 64.6752C298.758 65.7278 298.889 66.8437 298.786 67.9504L284.943 249.446C284.726 251.784 283.654 253.96 281.934 255.557C280.213 257.155 277.964 258.062 275.616 258.105Z" fill="white" fill-opacity="0.3"/>
<path opacity="0.5" d="M275.616 258.105H162.586C161.475 258.118 160.374 257.898 159.353 257.459C158.332 257.019 157.416 256.37 156.662 255.554C155.908 254.738 155.334 253.773 154.977 252.72C154.62 251.668 154.488 250.553 154.589 249.446L168.432 67.9504C168.648 65.6121 169.719 63.4355 171.44 61.8378C173.161 60.2401 175.411 59.3337 177.759 59.2922H290.789C291.901 59.2777 293.003 59.497 294.024 59.936C295.045 60.3749 295.962 61.0237 296.716 61.8402C297.47 62.6566 298.044 63.6225 298.401 64.6752C298.758 65.7278 298.889 66.8437 298.786 67.9504L284.943 249.446C284.726 251.784 283.654 253.96 281.934 255.557C280.213 257.155 277.964 258.062 275.616 258.105Z" fill="white"/>
<path d="M273.939 258.105H160.902C159.791 258.118 158.689 257.898 157.669 257.459C156.648 257.019 155.731 256.37 154.977 255.554C154.223 254.738 153.649 253.773 153.292 252.72C152.935 251.668 152.803 250.553 152.905 249.446L166.755 67.9504C166.971 65.6109 168.043 63.4334 169.765 61.8355C171.488 60.2377 173.739 59.332 176.088 59.2922H289.119C290.23 59.2777 291.332 59.497 292.353 59.936C293.374 60.3749 294.292 61.0237 295.046 61.8402C295.8 62.6566 296.374 63.6225 296.731 64.6752C297.087 65.7278 297.218 66.8437 297.116 67.9504L283.272 249.446C283.057 251.786 281.985 253.963 280.262 255.561C278.54 257.159 276.288 258.065 273.939 258.105Z" fill="#5C068C"/>
<path d="M273.939 258.105H160.902C159.791 258.118 158.689 257.898 157.669 257.459C156.648 257.019 155.731 256.37 154.977 255.554C154.223 254.738 153.649 253.773 153.292 252.72C152.935 251.668 152.803 250.553 152.905 249.446L166.755 67.9504C166.971 65.6109 168.043 63.4334 169.765 61.8355C171.488 60.2377 173.739 59.332 176.088 59.2922H289.119C290.23 59.2777 291.332 59.497 292.353 59.936C293.374 60.3749 294.292 61.0237 295.046 61.8402C295.8 62.6566 296.374 63.6225 296.731 64.6752C297.087 65.7278 297.218 66.8437 297.116 67.9504L283.272 249.446C283.057 251.786 281.985 253.963 280.262 255.561C278.54 257.159 276.288 258.065 273.939 258.105Z" fill="white" fill-opacity="0.3"/>
<path opacity="0.7" d="M273.939 258.105H160.902C159.791 258.118 158.689 257.898 157.669 257.459C156.648 257.019 155.731 256.37 154.977 255.554C154.223 254.738 153.649 253.773 153.292 252.72C152.935 251.668 152.803 250.553 152.905 249.446L166.755 67.9504C166.971 65.6109 168.043 63.4334 169.765 61.8355C171.488 60.2377 173.739 59.332 176.088 59.2922H289.119C290.23 59.2777 291.332 59.497 292.353 59.936C293.374 60.3749 294.292 61.0237 295.046 61.8402C295.8 62.6566 296.374 63.6225 296.731 64.6752C297.087 65.7278 297.218 66.8437 297.116 67.9504L283.272 249.446C283.057 251.786 281.985 253.963 280.262 255.561C278.54 257.159 276.288 258.065 273.939 258.105Z" fill="white"/>
<path d="M161.124 255.216C160.383 255.227 159.648 255.082 158.967 254.79C158.285 254.498 157.673 254.066 157.17 253.522C156.667 252.977 156.285 252.333 156.047 251.631C155.81 250.929 155.723 250.184 155.793 249.447L169.455 70.3588C169.596 68.7994 170.309 67.3472 171.456 66.2819C172.604 65.2166 174.105 64.6136 175.671 64.589H288.701C289.442 64.5779 290.177 64.7231 290.858 65.0151C291.54 65.3071 292.152 65.7394 292.655 66.2837C293.158 66.8281 293.54 67.4723 293.778 68.1745C294.015 68.8766 294.102 69.6209 294.032 70.3588L280.37 249.447C280.229 251.005 279.517 252.456 278.371 253.521C277.225 254.586 275.726 255.19 274.162 255.216H161.124Z" fill="#5C068C"/>
<path d="M161.124 255.216C160.383 255.227 159.648 255.082 158.967 254.79C158.285 254.498 157.673 254.066 157.17 253.522C156.667 252.977 156.285 252.333 156.047 251.631C155.81 250.929 155.723 250.184 155.793 249.447L169.455 70.3588C169.596 68.7994 170.309 67.3472 171.456 66.2819C172.604 65.2166 174.105 64.6136 175.671 64.589H288.701C289.442 64.5779 290.177 64.7231 290.858 65.0151C291.54 65.3071 292.152 65.7394 292.655 66.2837C293.158 66.8281 293.54 67.4723 293.778 68.1745C294.015 68.8766 294.102 69.6209 294.032 70.3588L280.37 249.447C280.229 251.005 279.517 252.456 278.371 253.521C277.225 254.586 275.726 255.19 274.162 255.216H161.124Z" fill="white" fill-opacity="0.3"/>
<path opacity="0.2" d="M273.361 94.7117H192.472C192.033 94.7175 191.597 94.6308 191.193 94.4572C190.79 94.2836 190.427 94.0269 190.129 93.7039C189.831 93.381 189.604 92.9989 189.463 92.5825C189.323 92.1662 189.271 91.7249 189.312 91.2874C189.399 90.365 189.823 89.507 190.502 88.8767C191.181 88.2465 192.068 87.8881 192.994 87.87H273.883C274.322 87.8632 274.758 87.949 275.162 88.1218C275.565 88.2947 275.928 88.5506 276.226 88.8731C276.524 89.1955 276.751 89.5772 276.892 89.9932C277.033 90.4092 277.084 90.8501 277.043 91.2874C276.961 92.2121 276.539 93.0736 275.859 93.7059C275.179 94.3382 274.29 94.6964 273.361 94.7117Z" fill="black"/>
<g opacity="0.3">
<path d="M238.854 62.821H225.79C225.682 62.8225 225.575 62.8011 225.475 62.7585C225.376 62.7158 225.286 62.6527 225.213 62.5733C225.139 62.494 225.083 62.4 225.049 62.2976C225.014 62.1952 225.001 62.0866 225.01 61.9789C225.032 61.7523 225.137 61.5415 225.303 61.3864C225.47 61.2313 225.688 61.1425 225.915 61.1367H238.986C239.094 61.1363 239.2 61.1583 239.299 61.2014C239.397 61.2445 239.486 61.3077 239.559 61.387C239.631 61.4663 239.687 61.5599 239.721 61.6618C239.756 61.7637 239.768 61.8717 239.759 61.9789C239.74 62.2067 239.636 62.4192 239.469 62.5749C239.302 62.7306 239.082 62.8184 238.854 62.821Z" fill="#5C068C"/>
<path d="M238.854 62.821H225.79C225.682 62.8225 225.575 62.8011 225.475 62.7585C225.376 62.7158 225.286 62.6527 225.213 62.5733C225.139 62.494 225.083 62.4 225.049 62.2976C225.014 62.1952 225.001 62.0866 225.01 61.9789C225.032 61.7523 225.137 61.5415 225.303 61.3864C225.47 61.2313 225.688 61.1425 225.915 61.1367H238.986C239.094 61.1363 239.2 61.1583 239.299 61.2014C239.397 61.2445 239.486 61.3077 239.559 61.387C239.631 61.4663 239.687 61.5599 239.721 61.6618C239.756 61.7637 239.768 61.8717 239.759 61.9789C239.74 62.2067 239.636 62.4192 239.469 62.5749C239.302 62.7306 239.082 62.8184 238.854 62.821Z" fill="white" fill-opacity="0.3"/>
</g>
<path d="M192.096 91.2875C192.212 90.077 192.071 88.8556 191.682 87.7033C191.294 86.551 190.667 85.4937 189.842 84.6003C189.017 83.7069 188.012 82.9977 186.894 82.519C185.777 82.0402 184.57 81.8027 183.354 81.8219H265.482C266.698 81.8027 267.905 82.0402 269.022 82.519C270.14 82.9977 271.145 83.7069 271.97 84.6003C272.795 85.4937 273.422 86.551 273.81 87.7033C274.199 88.8556 274.34 90.077 274.224 91.2875H192.096Z" fill="#F0F0F0"/>
<path d="M183.376 81.8218C180.807 81.8613 178.344 82.8503 176.461 84.5981C174.578 86.3459 173.409 88.7288 173.179 91.2874L164.765 201.583C164.536 204.141 163.369 206.523 161.487 208.271C159.605 210.019 157.143 211.008 154.575 211.048H236.703C239.272 211.009 241.735 210.02 243.618 208.272C245.5 206.524 246.669 204.141 246.9 201.583L255.314 91.2874C255.543 88.7294 256.71 86.3466 258.592 84.5986C260.474 82.8507 262.936 81.8615 265.504 81.8218H183.376Z" fill="white"/>
<path d="M227.954 201.583C227.839 202.793 227.98 204.014 228.368 205.167C228.757 206.319 229.384 207.376 230.209 208.27C231.034 209.163 232.038 209.872 233.156 210.351C234.274 210.83 235.48 211.067 236.696 211.048H154.568C153.352 211.067 152.146 210.83 151.028 210.351C149.91 209.872 148.906 209.163 148.081 208.27C147.256 207.376 146.629 206.319 146.24 205.167C145.852 204.014 145.711 202.793 145.826 201.583H227.954Z" fill="#D7D6D6"/>
<path d="M179.882 199.404C180.195 195.374 178.928 192.117 174.906 192.117H238.144C242.167 192.117 245.195 195.799 243.127 199.404H179.882Z" fill="#E0E0E0"/>
<path d="M227.954 201.583C228.178 199.021 229.343 196.633 231.225 194.881C233.107 193.129 235.572 192.136 238.144 192.096H156.016C153.448 192.136 150.985 193.125 149.104 194.873C147.222 196.621 146.055 199.004 145.826 201.562L227.954 201.583Z" fill="#D7D6D6"/>
<path d="M266.784 228.928H172.511C172.192 228.932 171.875 228.869 171.582 228.744C171.289 228.618 171.026 228.432 170.809 228.197C170.592 227.963 170.428 227.686 170.325 227.384C170.222 227.081 170.185 226.761 170.214 226.443C170.276 225.773 170.582 225.149 171.075 224.69C171.568 224.232 172.213 223.971 172.887 223.959H267.167C267.485 223.955 267.801 224.019 268.093 224.145C268.386 224.272 268.648 224.458 268.864 224.692C269.08 224.926 269.244 225.203 269.346 225.505C269.448 225.806 269.486 226.126 269.457 226.443C269.395 227.114 269.088 227.738 268.595 228.197C268.102 228.655 267.457 228.915 266.784 228.928Z" fill="white"/>
<path d="M219.178 240.871H171.599C171.28 240.877 170.963 240.815 170.669 240.689C170.376 240.564 170.112 240.378 169.895 240.143C169.678 239.908 169.513 239.631 169.411 239.328C169.309 239.026 169.272 238.705 169.303 238.387C169.364 237.716 169.671 237.092 170.164 236.634C170.657 236.175 171.302 235.915 171.975 235.902H219.554C219.873 235.898 220.189 235.961 220.482 236.087C220.776 236.212 221.039 236.399 221.256 236.633C221.472 236.867 221.637 237.144 221.74 237.447C221.842 237.749 221.88 238.069 221.851 238.387C221.789 239.057 221.482 239.682 220.989 240.14C220.496 240.598 219.851 240.859 219.178 240.871Z" fill="white"/>
<path d="M252.12 240.872H232.847C232.528 240.877 232.211 240.815 231.917 240.69C231.624 240.564 231.36 240.378 231.143 240.143C230.926 239.909 230.761 239.631 230.659 239.329C230.557 239.026 230.52 238.705 230.551 238.387C230.612 237.717 230.919 237.092 231.412 236.634C231.905 236.176 232.55 235.915 233.223 235.902H252.495C252.814 235.899 253.13 235.963 253.423 236.089C253.715 236.215 253.978 236.402 254.195 236.636C254.411 236.87 254.576 237.146 254.679 237.448C254.782 237.75 254.82 238.07 254.792 238.387C254.731 239.058 254.424 239.682 253.931 240.14C253.438 240.599 252.793 240.859 252.12 240.872Z" fill="white"/>
<path d="M271.392 193.613L266.471 194.386C266.351 193.93 266.161 193.496 265.907 193.098C265.656 192.795 265.346 192.547 264.995 192.367L264.703 196.147C267.301 196.857 269.014 197.604 269.839 198.388C270.376 198.898 270.787 199.525 271.039 200.221C271.292 200.917 271.379 201.662 271.294 202.397C271.233 203.324 270.946 204.222 270.459 205.014C270.001 205.781 269.401 206.454 268.691 206.997C268.036 207.509 267.296 207.902 266.506 208.16C265.6 208.42 264.664 208.562 263.722 208.584L263.534 211.048H261.696L261.884 208.584C260.838 208.516 259.806 208.307 258.815 207.965C258.072 207.688 257.395 207.262 256.824 206.712C256.314 206.223 255.905 205.639 255.62 204.993C255.326 204.283 255.146 203.531 255.084 202.766L260.409 202.153C260.439 202.804 260.605 203.442 260.896 204.025C261.206 204.473 261.635 204.825 262.135 205.042L262.483 200.427C261.234 200.107 260.014 199.683 258.836 199.16C258.093 198.764 257.476 198.169 257.054 197.441C256.556 196.566 256.351 195.553 256.469 194.553C256.516 193.811 256.71 193.085 257.04 192.418C257.369 191.751 257.829 191.157 258.39 190.669C259.797 189.535 261.553 188.923 263.36 188.936L263.457 187.642H265.364L265.267 188.936C266.833 188.933 268.361 189.42 269.638 190.328C270.617 191.162 271.244 192.336 271.392 193.613ZM263.088 192.305C262.631 192.427 262.213 192.667 261.877 193.001C261.637 193.266 261.495 193.605 261.474 193.961C261.437 194.315 261.528 194.671 261.731 194.964C262.02 195.3 262.403 195.542 262.831 195.66L263.088 192.305ZM264.014 205.174C264.645 205.068 265.232 204.783 265.705 204.353C266.056 204.016 266.274 203.563 266.318 203.079C266.353 202.67 266.228 202.263 265.97 201.944C265.522 201.482 264.956 201.149 264.334 200.984L264.014 205.174Z" fill="white"/>
<path d="M178.677 112.522H181.023L180.445 120.081H178.107L178.677 112.522Z" fill="#5C068C"/>
<path d="M178.677 112.522H181.023L180.445 120.081H178.107L178.677 112.522Z" fill="white" fill-opacity="0.3"/>
<path d="M182.714 112.522H184.893L187.419 116.698L187.74 112.522H189.939L189.361 120.081H187.162L184.649 115.905L184.329 120.081H182.137L182.714 112.522Z" fill="#5C068C"/>
<path d="M182.714 112.522H184.893L187.419 116.698L187.74 112.522H189.939L189.361 120.081H187.162L184.649 115.905L184.329 120.081H182.137L182.714 112.522Z" fill="white" fill-opacity="0.3"/>
<path d="M190.746 112.522H193.189L194.477 117.965L196.565 112.522H198.931L195.576 120.081H193.05L190.746 112.522Z" fill="#5C068C"/>
<path d="M190.746 112.522H193.189L194.477 117.965L196.565 112.522H198.931L195.576 120.081H193.05L190.746 112.522Z" fill="white" fill-opacity="0.3"/>
<path d="M198.757 116.308C198.789 115.222 199.238 114.191 200.01 113.427C200.823 112.714 201.881 112.345 202.961 112.397C203.477 112.357 203.996 112.426 204.484 112.6C204.972 112.774 205.418 113.048 205.794 113.406C206.121 113.795 206.362 114.25 206.5 114.739C206.638 115.229 206.67 115.742 206.594 116.245C206.564 117.008 206.354 117.752 205.981 118.417C205.647 118.977 205.166 119.434 204.589 119.739C203.927 120.071 203.193 120.234 202.453 120.213C201.734 120.24 201.019 120.099 200.365 119.802C199.817 119.52 199.375 119.068 199.105 118.514C198.791 117.824 198.671 117.062 198.757 116.308ZM201.096 116.308C200.994 116.876 201.1 117.462 201.395 117.958C201.528 118.124 201.7 118.255 201.895 118.341C202.09 118.427 202.303 118.465 202.515 118.452C202.738 118.462 202.961 118.424 203.168 118.34C203.374 118.256 203.56 118.128 203.712 117.965C204.081 117.455 204.274 116.839 204.262 116.211C204.356 115.668 204.245 115.11 203.949 114.645C203.813 114.48 203.64 114.349 203.444 114.265C203.248 114.18 203.035 114.143 202.822 114.157C202.601 114.152 202.382 114.194 202.179 114.28C201.976 114.367 201.794 114.496 201.645 114.659C201.285 115.135 201.091 115.717 201.096 116.315V116.308Z" fill="#5C068C"/>
<path d="M198.757 116.308C198.789 115.222 199.238 114.191 200.01 113.427C200.823 112.714 201.881 112.345 202.961 112.397C203.477 112.357 203.996 112.426 204.484 112.6C204.972 112.774 205.418 113.048 205.794 113.406C206.121 113.795 206.362 114.25 206.5 114.739C206.638 115.229 206.67 115.742 206.594 116.245C206.564 117.008 206.354 117.752 205.981 118.417C205.647 118.977 205.166 119.434 204.589 119.739C203.927 120.071 203.193 120.234 202.453 120.213C201.734 120.24 201.019 120.099 200.365 119.802C199.817 119.52 199.375 119.068 199.105 118.514C198.791 117.824 198.671 117.062 198.757 116.308ZM201.096 116.308C200.994 116.876 201.1 117.462 201.395 117.958C201.528 118.124 201.7 118.255 201.895 118.341C202.09 118.427 202.303 118.465 202.515 118.452C202.738 118.462 202.961 118.424 203.168 118.34C203.374 118.256 203.56 118.128 203.712 117.965C204.081 117.455 204.274 116.839 204.262 116.211C204.356 115.668 204.245 115.11 203.949 114.645C203.813 114.48 203.64 114.349 203.444 114.265C203.248 114.18 203.035 114.143 202.822 114.157C202.601 114.152 202.382 114.194 202.179 114.28C201.976 114.367 201.794 114.496 201.645 114.659C201.285 115.135 201.091 115.717 201.096 116.315V116.308Z" fill="white" fill-opacity="0.3"/>
<path d="M208.23 112.522H210.568L209.997 120.081H207.652L208.23 112.522Z" fill="#5C068C"/>
<path d="M208.23 112.522H210.568L209.997 120.081H207.652L208.23 112.522Z" fill="white" fill-opacity="0.3"/>
<path d="M216.936 116.991L218.934 117.61C218.78 118.134 218.522 118.622 218.175 119.044C217.864 119.424 217.465 119.722 217.013 119.914C216.474 120.129 215.895 120.231 215.315 120.213C214.635 120.238 213.958 120.115 213.331 119.851C212.787 119.579 212.347 119.137 212.078 118.591C211.723 117.879 211.587 117.077 211.689 116.288C211.708 115.204 212.145 114.17 212.907 113.399C213.704 112.7 214.743 112.34 215.802 112.397C216.578 112.346 217.35 112.548 218.001 112.975C218.556 113.42 218.938 114.045 219.08 114.742L216.992 115.202C216.957 115.026 216.894 114.856 216.804 114.701C216.695 114.526 216.542 114.384 216.359 114.29C216.165 114.191 215.95 114.14 215.732 114.144C215.485 114.136 215.239 114.191 215.017 114.303C214.796 114.414 214.606 114.58 214.466 114.784C214.187 115.229 214.037 115.742 214.034 116.267C213.927 116.854 214.015 117.46 214.285 117.993C214.407 118.149 214.565 118.273 214.745 118.354C214.926 118.436 215.124 118.472 215.322 118.459C215.512 118.471 215.703 118.444 215.883 118.38C216.062 118.315 216.227 118.214 216.366 118.083C216.641 117.77 216.836 117.395 216.936 116.991Z" fill="#5C068C"/>
<path d="M216.936 116.991L218.934 117.61C218.78 118.134 218.522 118.622 218.175 119.044C217.864 119.424 217.465 119.722 217.013 119.914C216.474 120.129 215.895 120.231 215.315 120.213C214.635 120.238 213.958 120.115 213.331 119.851C212.787 119.579 212.347 119.137 212.078 118.591C211.723 117.879 211.587 117.077 211.689 116.288C211.708 115.204 212.145 114.17 212.907 113.399C213.704 112.7 214.743 112.34 215.802 112.397C216.578 112.346 217.35 112.548 218.001 112.975C218.556 113.42 218.938 114.045 219.08 114.742L216.992 115.202C216.957 115.026 216.894 114.856 216.804 114.701C216.695 114.526 216.542 114.384 216.359 114.29C216.165 114.191 215.95 114.14 215.732 114.144C215.485 114.136 215.239 114.191 215.017 114.303C214.796 114.414 214.606 114.58 214.466 114.784C214.187 115.229 214.037 115.742 214.034 116.267C213.927 116.854 214.015 117.46 214.285 117.993C214.407 118.149 214.565 118.273 214.745 118.354C214.926 118.436 215.124 118.472 215.322 118.459C215.512 118.471 215.703 118.444 215.883 118.38C216.062 118.315 216.227 118.214 216.366 118.083C216.641 117.77 216.836 117.395 216.936 116.991Z" fill="white" fill-opacity="0.3"/>
<path d="M220.451 112.522H226.715L226.597 114.137H222.679L222.588 115.341H226.2L226.082 116.879H222.449L222.331 118.369H226.367L226.235 120.081H219.86L220.451 112.522Z" fill="#5C068C"/>
<path d="M220.451 112.522H226.715L226.597 114.137H222.679L222.588 115.341H226.2L226.082 116.879H222.449L222.331 118.369H226.367L226.235 120.081H219.86L220.451 112.522Z" fill="white" fill-opacity="0.3"/>
<path d="M245.243 129.839H177.362L177.501 127.96H245.389L245.243 129.839Z" fill="#5C068C"/>
<path d="M245.243 129.839H177.362L177.501 127.96H245.389L245.243 129.839Z" fill="white" fill-opacity="0.3"/>
<path d="M245.243 129.839H177.362L176.917 135.609H244.805L245.243 129.839Z" fill="#F0F0F0"/>
<path d="M244.366 141.372H176.478L176.04 147.134H243.928L244.366 141.372Z" fill="#F0F0F0"/>
<path d="M243.482 152.897H175.601L175.163 158.667H243.044L243.482 152.897Z" fill="#F0F0F0"/>
<path d="M242.605 164.43H174.717L174.279 170.193H242.167L242.605 164.43Z" fill="#F0F0F0"/>
<path d="M241.582 177.842H173.694L173.84 175.956H241.728L241.582 177.842Z" fill="#5C068C"/>
<path d="M241.582 177.842H173.694L173.84 175.956H241.728L241.582 177.842Z" fill="white" fill-opacity="0.3"/>
<path d="M233.815 94.7119H247.923L247.282 103.127H233.174L233.815 94.7119Z" fill="#F0F0F0"/>
</svg>
