<svg width="14" height="15" viewBox="0 0 14 15" fill="none" xmlns="http://www.w3.org/2000/svg">
<path fill-rule="evenodd" clip-rule="evenodd" d="M7.00065 8.66659C7.64498 8.66659 8.16732 8.14425 8.16732 7.49992C8.16732 6.85559 7.64498 6.33325 7.00065 6.33325C6.35632 6.33325 5.83398 6.85559 5.83398 7.49992C5.83398 8.14425 6.35632 8.66659 7.00065 8.66659Z" stroke="#7B8794" stroke-linecap="round" stroke-linejoin="round"/>
<path fill-rule="evenodd" clip-rule="evenodd" d="M7.00065 4.00008C7.64498 4.00008 8.16732 3.47775 8.16732 2.83341C8.16732 2.18908 7.64498 1.66675 7.00065 1.66675C6.35632 1.66675 5.83398 2.18908 5.83398 2.83341C5.83398 3.47775 6.35632 4.00008 7.00065 4.00008Z" stroke="#7B8794" stroke-linecap="round" stroke-linejoin="round"/>
<path fill-rule="evenodd" clip-rule="evenodd" d="M7.00065 13.3333C7.64498 13.3333 8.16732 12.811 8.16732 12.1667C8.16732 11.5223 7.64498 11 7.00065 11C6.35632 11 5.83398 11.5223 5.83398 12.1667C5.83398 12.811 6.35632 13.3333 7.00065 13.3333Z" stroke="#7B8794" stroke-linecap="round" stroke-linejoin="round"/>
</svg>
