<svg width="18" height="18" viewBox="0 0 18 18" fill="none" xmlns="http://www.w3.org/2000/svg">
<g clip-path="url(#clip0_18255_308)">
<path d="M10.5469 8.99983H12.8571V2.24983C12.8571 1.62862 13.4317 1.12483 14.1429 1.12483C14.854 1.12483 15.4286 1.62862 15.4286 2.24983V8.99983H16.7143C17.4254 8.99983 18 9.50257 18 10.1248C18 10.7471 17.4254 11.2498 16.7143 11.2498H15.4286V15.7498C15.4286 16.2455 15.0589 16.6815 14.5165 16.8256C13.9741 16.9698 13.3875 16.7869 13.0741 16.3756L9.16875 11.2498H5.14286V15.7498C5.14286 16.3721 4.5683 16.8748 3.85714 16.8748C3.14719 16.8748 2.57143 16.3721 2.57143 15.7498V11.2498H1.28571C0.575759 11.2498 0 10.7471 0 10.1248C0 9.50257 0.575759 8.99983 1.28571 8.99983H2.57143V2.24983C2.57143 1.75413 2.94228 1.31678 3.48469 1.173C4.02589 1.02956 4.6125 1.21343 4.92589 1.62581L10.5469 8.99983ZM12.2585 11.2498L12.8571 12.0338V11.2498H12.2585ZM7.45312 8.99983L5.14286 5.96585V8.99983H7.45312Z" fill="#170123"/>
</g>
<defs>
<clipPath id="clip0_18255_308">
<rect width="18" height="18" fill="white"/>
</clipPath>
</defs>
</svg>
