<svg width="162" height="107" viewBox="0 0 162 107" fill="none" xmlns="http://www.w3.org/2000/svg">
<path d="M47.803 26.1638L23.792 42.2256L47.4427 77.5812L71.4536 61.5194L47.803 26.1638Z" fill="#F5F5F5"/>
<path d="M59.0466 59.8475L58.7748 61.5338L46.8379 59.8133L47.1097 58.127L59.0466 59.8475Z" fill="#E0E0E0"/>
<path d="M53.0356 53.832L54.7476 54.0781L52.8494 65.831L51.1353 65.5828L53.0356 53.832Z" fill="#E0E0E0"/>
<path d="M42.0514 38.8939C42.0685 38.9174 39.6632 40.5588 36.6779 42.5533C33.6926 44.5477 31.2594 46.1485 31.2423 46.1228C31.2252 46.0971 33.6305 44.4579 36.6158 42.4612C39.6011 40.4646 42.0236 38.8682 42.0514 38.8939Z" fill="#E0E0E0"/>
<path d="M50.8706 36.6779C50.8877 36.7036 46.8859 39.4086 41.934 42.7213C36.982 46.034 32.946 48.6983 32.9331 48.6748C32.9203 48.6512 36.9135 45.942 41.8719 42.6293C46.8303 39.3165 50.8535 36.6522 50.8706 36.6779Z" fill="#E0E0E0"/>
<path d="M52.6411 39.3224C52.6582 39.3481 48.6564 42.0552 43.7045 45.3679C38.7525 48.6807 34.7165 51.345 34.7036 51.3193C34.6908 51.2936 38.6883 48.5886 43.6424 45.2738C48.5965 41.9589 52.624 39.2968 52.6411 39.3224Z" fill="#E0E0E0"/>
<path d="M54.409 41.9699C54.4261 41.9956 50.4243 44.7027 45.4724 48.0133C40.5204 51.3239 36.4844 53.9924 36.4844 53.9668C36.4844 53.9411 40.4669 51.234 45.421 47.9213C50.3751 44.6085 54.3919 41.9442 54.409 41.9699Z" fill="#E0E0E0"/>
<path d="M56.1746 44.6164C56.1917 44.6421 52.1899 47.347 47.238 50.6598C42.286 53.9725 38.25 56.6368 38.2393 56.6111C38.2286 56.5854 42.2282 53.8805 47.1866 50.5677C52.145 47.255 56.1746 44.5907 56.1746 44.6164Z" fill="#E0E0E0"/>
<path d="M123.255 60.5622C123.273 60.5879 121.255 61.9682 118.746 63.6438C116.238 65.3195 114.193 66.6591 114.175 66.6398C114.158 66.6206 116.178 65.236 118.684 63.5582C121.19 61.8805 123.238 60.5259 123.255 60.5622Z" fill="#E0E0E0"/>
<path d="M130.67 58.6897C130.688 58.7154 127.33 60.9923 123.18 63.7722C119.031 66.552 115.635 68.7905 115.618 68.7648C115.601 68.7391 118.958 66.4622 123.108 63.6802C127.257 60.8982 130.647 58.664 130.67 58.6897Z" fill="#E0E0E0"/>
<path d="M132.157 60.9103C132.174 60.936 128.817 63.213 124.667 65.995C120.518 68.777 117.122 71.0111 117.105 70.9855C117.087 70.9598 120.434 68.6935 124.595 65.9115C128.755 63.1295 132.144 60.8868 132.157 60.9103Z" fill="#E0E0E0"/>
<path d="M133.641 63.13C133.658 63.1557 130.298 65.4327 126.151 68.2147C122.003 70.9967 118.605 73.2308 118.588 73.2052C118.571 73.1795 121.928 70.9047 126.078 68.1205C130.227 65.3364 133.626 63.1086 133.641 63.13Z" fill="#E0E0E0"/>
<path d="M135.14 65.3576C135.157 65.3833 131.8 67.6581 127.65 70.4401C123.501 73.2221 120.105 75.4563 120.087 75.4328C120.07 75.4092 123.428 73.1301 127.577 70.3481C131.727 67.5661 135.112 65.332 135.14 65.3576Z" fill="#E0E0E0"/>
<path d="M96.1905 27.4645L74.1875 15.6963L56.8591 48.095L78.8621 59.8632L96.1905 27.4645Z" fill="#F5F5F5"/>
<path d="M75.0968 49.7266L73.7016 50.2038L70.1577 40.409L71.5551 39.9297L75.0968 49.7266Z" fill="#E0E0E0"/>
<path d="M77.2348 42.6992L77.7441 44.1052L68.0157 47.4372L67.5063 46.0312L77.2348 42.6992Z" fill="#E0E0E0"/>
<path d="M84.1479 28.2483C84.1307 28.2804 81.9009 27.1205 79.1638 25.6589C76.4267 24.1973 74.2247 22.9839 74.2418 22.9518C74.2589 22.9197 76.4909 24.0796 79.228 25.5412C81.9651 27.0028 84.165 28.2141 84.1479 28.2483Z" fill="#E0E0E0"/>
<path d="M89.4294 34.0747C89.4123 34.1068 85.7186 32.1637 81.1797 29.7369C76.6408 27.3102 72.9771 25.3157 72.9942 25.2836C73.0113 25.2515 76.7028 27.1925 81.2418 29.6214C85.7807 32.0503 89.4465 34.0426 89.4294 34.0747Z" fill="#E0E0E0"/>
<path d="M88.134 36.4995C88.1169 36.5316 84.4232 34.5906 79.8843 32.1617C75.3454 29.7328 71.6817 27.7405 71.6988 27.7084C71.7159 27.6763 75.4074 29.6194 79.9463 32.0462C84.4853 34.4729 88.1511 36.4674 88.134 36.4995Z" fill="#E0E0E0"/>
<path d="M86.8356 38.9243C86.8185 38.9564 83.1249 37.0154 78.5859 34.5887C74.047 32.1619 70.3833 30.1738 70.4005 30.1353C70.4176 30.0968 74.1091 32.0442 78.648 34.471C83.1869 36.8977 86.8528 38.8922 86.8356 38.9243Z" fill="#E0E0E0"/>
<path d="M85.5403 41.3489C85.5231 41.381 81.8295 39.4401 77.2906 37.0133C72.7516 34.5865 69.0858 32.5921 69.1051 32.56C69.1243 32.5279 72.8137 34.4688 77.3526 36.8956C81.8916 39.3224 85.5574 41.3168 85.5403 41.3489Z" fill="#E0E0E0"/>
<path d="M64.7363 50.1918L57.1607 89.097L56.1763 94.1902L106.68 93.9463C108.949 93.9356 110.96 91.9218 111.686 88.9301L120.644 52.2013C121.198 49.9307 119.983 47.5682 118.262 47.5703L67.1331 47.6238C66.0203 47.6217 65.023 48.6746 64.7363 50.1918Z" fill="#5C068C"/>
<path d="M64.7363 50.1918L57.1607 89.097L56.1763 94.1902L106.68 93.9463C108.949 93.9356 110.96 91.9218 111.686 88.9301L120.644 52.2013C121.198 49.9307 119.983 47.5682 118.262 47.5703L67.1331 47.6238C66.0203 47.6217 65.023 48.6746 64.7363 50.1918Z" fill="white" fill-opacity="0.9"/>
<g opacity="0.5">
<path d="M64.7314 50.1918L57.1558 89.097L56.1714 94.1902L106.675 93.9463C108.944 93.9356 110.955 91.9218 111.681 88.9301L120.639 52.2013C121.193 49.9307 119.978 47.5682 118.257 47.5703L67.1282 47.6238C66.0154 47.6217 65.0181 48.6746 64.7314 50.1918Z" fill="#5C068C"/>
<path d="M64.7314 50.1918L57.1558 89.097L56.1714 94.1902L106.675 93.9463C108.944 93.9356 110.955 91.9218 111.681 88.9301L120.639 52.2013C121.193 49.9307 119.978 47.5682 118.257 47.5703L67.1282 47.6238C66.0154 47.6217 65.0181 48.6746 64.7314 50.1918Z" fill="white" fill-opacity="0.6"/>
</g>
<path d="M101.84 86.4564L96.4903 43.3547C96.2763 41.5892 94.866 40.2709 93.2032 40.2774L81.476 40.3137C81.0402 40.3187 80.61 40.4123 80.2115 40.5889C79.813 40.7655 79.4547 41.0214 79.1584 41.3409L73.5944 47.2623L40.9808 47.4378C38.9885 47.4485 37.4562 49.336 37.7194 51.4546L42.6864 91.2907C42.9004 93.054 44.3106 94.3701 45.9691 94.368L102.818 94.2546C109.148 94.3851 109.754 92.5169 109.754 92.5169C102.487 94.1241 101.84 86.4671 101.84 86.4564Z" fill="#5C068C"/>
<path d="M101.84 86.4564L96.4903 43.3547C96.2763 41.5892 94.866 40.2709 93.2032 40.2774L81.476 40.3137C81.0402 40.3187 80.61 40.4123 80.2115 40.5889C79.813 40.7655 79.4547 41.0214 79.1584 41.3409L73.5944 47.2623L40.9808 47.4378C38.9885 47.4485 37.4562 49.336 37.7194 51.4546L42.6864 91.2907C42.9004 93.054 44.3106 94.3701 45.9691 94.368L102.818 94.2546C109.148 94.3851 109.754 92.5169 109.754 92.5169C102.487 94.1241 101.84 86.4671 101.84 86.4564Z" fill="white" fill-opacity="0.9"/>
<g opacity="0.5">
<path d="M77.326 77.8369L75.4086 79.8956L60.6426 66.6104L62.56 64.5518L77.326 77.8369Z" fill="white"/>
<path d="M74.6043 64.0957L76.7229 66.0024L63.3629 80.3511L61.2422 78.4444L74.6043 64.0957Z" fill="white"/>
</g>
</svg>
