<svg width="20" height="21" viewBox="0 0 20 21" fill="none" xmlns="http://www.w3.org/2000/svg">
<path d="M10 19.5445C10.35 19.5364 10.6858 19.4049 10.9481 19.1731C11.2104 18.9413 11.3823 18.6241 11.4333 18.2778H8.51111C8.56359 18.6336 8.74351 18.9581 9.01739 19.1911C9.29127 19.4241 9.64046 19.5497 10 19.5445Z" fill="#222823"/>
<path d="M18.0611 15.9611C17.5254 15.4835 17.0564 14.936 16.6667 14.3333C16.2412 13.5014 15.9863 12.5929 15.9167 11.6611V8.91664C15.9144 8.58328 15.8847 8.25067 15.8278 7.92219C15.3905 7.83479 14.9703 7.67719 14.5833 7.45553C14.7308 7.93044 14.8058 8.42491 14.8056 8.92219V11.6666C14.8737 12.8033 15.1863 13.9119 15.7222 14.9166C16.1058 15.5244 16.5609 16.084 17.0778 16.5833H2.85001C3.36691 16.084 3.82201 15.5244 4.20557 14.9166C4.74146 13.9119 5.05414 12.8033 5.12224 11.6666V8.91664C5.11931 8.27369 5.24324 7.63647 5.48693 7.04148C5.73061 6.44649 6.08927 5.90542 6.54236 5.44923C6.99545 4.99304 7.53407 4.63071 8.12739 4.38298C8.7207 4.13525 9.35706 4.00698 10 4.00553C10.941 4.00628 11.8609 4.28456 12.6445 4.80553C12.5581 4.4883 12.5096 4.16195 12.5 3.83331V3.48331C11.9199 3.19795 11.2968 3.01024 10.6556 2.92775V2.22775C10.6556 2.03105 10.5774 1.8424 10.4383 1.70331C10.2993 1.56422 10.1106 1.48608 9.9139 1.48608C9.7172 1.48608 9.52855 1.56422 9.38946 1.70331C9.25037 1.8424 9.17224 2.03105 9.17224 2.22775V2.95553C7.73652 3.15806 6.42255 3.87316 5.47291 4.96882C4.52327 6.06448 4.00208 7.46672 4.00557 8.91664V11.6611C3.93599 12.5929 3.681 13.5014 3.25557 14.3333C2.87273 14.9346 2.41123 15.482 1.88335 15.9611C1.82409 16.0131 1.77659 16.0772 1.74402 16.1491C1.71145 16.2209 1.69456 16.2989 1.69446 16.3778V17.1333C1.69446 17.2806 1.75299 17.422 1.85718 17.5261C1.96136 17.6303 2.10267 17.6889 2.25001 17.6889H17.6945C17.8418 17.6889 17.9831 17.6303 18.0873 17.5261C18.1915 17.422 18.25 17.2806 18.25 17.1333V16.3778C18.2499 16.2989 18.233 16.2209 18.2004 16.1491C18.1679 16.0772 18.1204 16.0131 18.0611 15.9611Z" fill="#222823"/>
<path d="M16.6667 6.61122C18.2008 6.61122 19.4444 5.36757 19.4444 3.83344C19.4444 2.29932 18.2008 1.05566 16.6667 1.05566C15.1325 1.05566 13.8889 2.29932 13.8889 3.83344C13.8889 5.36757 15.1325 6.61122 16.6667 6.61122Z" fill="#C91D25"/>
</svg>
