<svg width="57" height="57" viewBox="0 0 57 57" fill="none" xmlns="http://www.w3.org/2000/svg">
<rect width="56.6222" height="56.6222" rx="28.3111" fill="#170123"/>
<path d="M41.793 11.459H24.9412C23.6004 11.459 22.3145 11.9916 21.3664 12.9397C20.4183 13.8878 19.8856 15.1737 19.8856 16.5145V28.3108C19.8856 29.6517 20.4183 30.9376 21.3664 31.8857C22.3145 32.8338 23.6004 33.3664 24.9412 33.3664H41.793C43.1339 33.3664 44.4198 32.8338 45.3679 31.8857C46.316 30.9376 46.8486 29.6517 46.8486 28.3108V16.5145C46.8486 15.1737 46.316 13.8878 45.3679 12.9397C44.4198 11.9916 43.1339 11.459 41.793 11.459ZM43.4782 28.3108C43.4782 28.7578 43.3007 29.1864 42.9847 29.5024C42.6686 29.8185 42.24 29.996 41.793 29.996H24.9412C24.4943 29.996 24.0656 29.8185 23.7496 29.5024C23.4336 29.1864 23.256 28.7578 23.256 28.3108V16.5145C23.256 16.0676 23.4336 15.639 23.7496 15.3229C24.0656 15.0069 24.4943 14.8294 24.9412 14.8294H41.793C42.24 14.8294 42.6686 15.0069 42.9847 15.3229C43.3007 15.639 43.4782 16.0676 43.4782 16.5145V28.3108ZM37.5801 21.5701C36.9562 21.5722 36.3555 21.8065 35.8949 22.2273C35.5325 21.898 35.0823 21.6809 34.5989 21.6026C34.1155 21.5243 33.6198 21.5881 33.172 21.7862C32.7242 21.9844 32.3435 22.3083 32.0763 22.7187C31.8092 23.129 31.6669 23.6082 31.6669 24.0979C31.6669 24.5876 31.8092 25.0667 32.0763 25.4771C32.3435 25.8875 32.7242 26.2114 33.172 26.4095C33.6198 26.6076 34.1155 26.6714 34.5989 26.5931C35.0823 26.5148 35.5325 26.2978 35.8949 25.9684C36.1992 26.245 36.5664 26.4432 36.9647 26.5457C37.3629 26.6483 37.7801 26.6521 38.1802 26.5569C38.5803 26.4618 38.951 26.2704 39.2604 25.9995C39.5698 25.7285 39.8084 25.3862 39.9555 25.0022C40.1026 24.6182 40.1539 24.2041 40.1047 23.7958C40.0556 23.3875 39.9076 22.9974 39.6736 22.6593C39.4395 22.3211 39.1265 22.0452 38.7617 21.8554C38.3969 21.6656 37.9913 21.5677 37.5801 21.5701ZM35.0523 36.7368C34.6054 36.7368 34.1767 36.9143 33.8607 37.2303C33.5447 37.5464 33.3671 37.975 33.3671 38.4219V40.1071C33.3671 40.5541 33.1896 40.9827 32.8735 41.2987C32.5575 41.6148 32.1289 41.7923 31.6819 41.7923H14.8301C14.3832 41.7923 13.9545 41.6148 13.6385 41.2987C13.3225 40.9827 13.1449 40.5541 13.1449 40.1071V33.3664H14.8301C15.277 33.3664 15.7057 33.1888 16.0217 32.8728C16.3377 32.5568 16.5153 32.1281 16.5153 31.6812C16.5153 31.2343 16.3377 30.8056 16.0217 30.4896C15.7057 30.1736 15.277 29.996 14.8301 29.996H13.1449V28.3108C13.1449 27.8639 13.3225 27.4353 13.6385 27.1192C13.9545 26.8032 14.3832 26.6257 14.8301 26.6257C15.277 26.6257 15.7057 26.4481 16.0217 26.1321C16.3377 25.816 16.5153 25.3874 16.5153 24.9405C16.5153 24.4935 16.3377 24.0649 16.0217 23.7489C15.7057 23.4328 15.277 23.2553 14.8301 23.2553C13.4893 23.2553 12.2034 23.7879 11.2553 24.736C10.3072 25.6841 9.77454 26.97 9.77454 28.3108V40.1071C9.77454 41.4479 10.3072 42.7339 11.2553 43.6819C12.2034 44.6301 13.4893 45.1627 14.8301 45.1627H31.6819C33.0228 45.1627 34.3087 44.6301 35.2568 43.6819C36.2049 42.7339 36.7375 41.4479 36.7375 40.1071V38.4219C36.7375 37.975 36.56 37.5464 36.2439 37.2303C35.9279 36.9143 35.4992 36.7368 35.0523 36.7368ZM18.2005 38.4219H19.8856C20.3326 38.4219 20.7612 38.2444 21.0773 37.9284C21.3933 37.6123 21.5708 37.1837 21.5708 36.7368C21.5708 36.2898 21.3933 35.8612 21.0773 35.5452C20.7612 35.2291 20.3326 35.0516 19.8856 35.0516H18.2005C17.7535 35.0516 17.3249 35.2291 17.0089 35.5452C16.6928 35.8612 16.5153 36.2898 16.5153 36.7368C16.5153 37.1837 16.6928 37.6123 17.0089 37.9284C17.3249 38.2444 17.7535 38.4219 18.2005 38.4219Z" fill="white"/>
</svg>
