<svg width="22" height="22" viewBox="0 0 22 22" fill="none" xmlns="http://www.w3.org/2000/svg">
<path fill-rule="evenodd" clip-rule="evenodd" d="M11 13.5C12.3807 13.5 13.5 12.3807 13.5 11C13.5 9.61929 12.3807 8.5 11 8.5C9.61929 8.5 8.5 9.61929 8.5 11C8.5 12.3807 9.61929 13.5 11 13.5Z" stroke="#170123" stroke-width="2" stroke-linecap="round" stroke-linejoin="round"/>
<path fill-rule="evenodd" clip-rule="evenodd" d="M17.1667 13.4999C16.9398 14.0142 17.0487 14.6148 17.4417 15.0166L17.4917 15.0666C17.8047 15.3792 17.9805 15.8034 17.9805 16.2458C17.9805 16.6881 17.8047 17.1123 17.4917 17.4249C17.1791 17.7379 16.7549 17.9137 16.3125 17.9137C15.8702 17.9137 15.446 17.7379 15.1334 17.4249L15.0834 17.3749C14.6816 16.9819 14.0809 16.873 13.5667 17.0999C13.063 17.3158 12.7356 17.8102 12.7334 18.3583V18.4999C12.7334 19.4204 11.9872 20.1666 11.0667 20.1666C10.1462 20.1666 9.40004 19.4204 9.40004 18.4999V18.4249C9.38684 17.8605 9.02993 17.3615 8.50004 17.1666C7.9858 16.9396 7.3852 17.0485 6.98337 17.4416L6.93337 17.4916C6.62076 17.8045 6.19656 17.9804 5.75421 17.9804C5.31186 17.9804 4.88765 17.8045 4.57504 17.4916C4.26208 17.179 4.08623 16.7548 4.08623 16.3124C4.08623 15.8701 4.26208 15.4459 4.57504 15.1333L4.62504 15.0833C5.0181 14.6814 5.127 14.0808 4.90004 13.5666C4.68415 13.0629 4.18974 12.7354 3.64171 12.7333H3.50004C2.57957 12.7333 1.83337 11.9871 1.83337 11.0666C1.83337 10.1461 2.57957 9.39992 3.50004 9.39992H3.57504C4.13948 9.38672 4.63849 9.02981 4.83337 8.49992C5.06033 7.98568 4.95143 7.38507 4.55837 6.98325L4.50837 6.93325C4.19541 6.62064 4.01956 6.19643 4.01956 5.75408C4.01956 5.31174 4.19541 4.88753 4.50837 4.57492C4.82099 4.26196 5.24519 4.08611 5.68754 4.08611C6.12989 4.08611 6.55409 4.26196 6.86671 4.57492L6.91671 4.62492C7.31853 5.01797 7.91913 5.12687 8.43337 4.89992H8.50004C9.00377 4.68403 9.33119 4.18962 9.33337 3.64159V3.49992C9.33337 2.57944 10.0796 1.83325 11 1.83325C11.9205 1.83325 12.6667 2.57944 12.6667 3.49992V3.57492C12.6689 4.12295 12.9963 4.61736 13.5 4.83325C14.0143 5.06021 14.6149 4.95131 15.0167 4.55825L15.0667 4.50825C15.3793 4.19529 15.8035 4.01944 16.2459 4.01944C16.6882 4.01944 17.1124 4.19529 17.425 4.50825C17.738 4.82087 17.9139 5.24507 17.9139 5.68742C17.9139 6.12977 17.738 6.55397 17.425 6.86658L17.375 6.91658C16.982 7.31841 16.8731 7.91901 17.1 8.43325V8.49992C17.3159 9.00364 17.8103 9.33107 18.3584 9.33325H18.5C19.4205 9.33325 20.1667 10.0794 20.1667 10.9999C20.1667 11.9204 19.4205 12.6666 18.5 12.6666H18.425C17.877 12.6688 17.3826 12.9962 17.1667 13.4999Z" stroke="#170123" stroke-width="2" stroke-linecap="round" stroke-linejoin="round"/>
</svg>
