<svg width="57" height="57" viewBox="0 0 57 57" fill="none" xmlns="http://www.w3.org/2000/svg">
<rect x="0.0888672" width="56.6222" height="56.6222" rx="28.3111" fill="#170123"/>
<path d="M38.5114 24.9406C38.5114 24.4937 38.3339 24.0651 38.0178 23.749C37.7018 23.433 37.2732 23.2554 36.8262 23.2554H17.2949L21.1709 19.3964C21.4882 19.079 21.6665 18.6487 21.6665 18.1999C21.6665 17.7511 21.4882 17.3207 21.1709 17.0034C20.8535 16.6861 20.4232 16.5078 19.9744 16.5078C19.5256 16.5078 19.0952 16.6861 18.7779 17.0034L12.0372 23.7442C11.8033 23.9811 11.6449 24.2821 11.5819 24.609C11.519 24.9359 11.5542 25.2741 11.6833 25.581C11.8097 25.8888 12.0244 26.1522 12.3003 26.3381C12.5762 26.5241 12.9009 26.6242 13.2336 26.6258H36.8262C37.2732 26.6258 37.7018 26.4483 38.0178 26.1322C38.3339 25.8162 38.5114 25.3876 38.5114 24.9406ZM45.1173 31.041C44.9909 30.7333 44.7762 30.4698 44.5003 30.2839C44.2244 30.098 43.8997 29.9978 43.567 29.9962H19.9744C19.5274 29.9962 19.0988 30.1737 18.7828 30.4898C18.4667 30.8058 18.2892 31.2344 18.2892 31.6814C18.2892 32.1283 18.4667 32.5569 18.7828 32.873C19.0988 33.189 19.5274 33.3666 19.9744 33.3666H39.5057L35.6298 37.2256C35.4718 37.3823 35.3464 37.5687 35.2609 37.774C35.1753 37.9794 35.1313 38.1996 35.1313 38.4221C35.1313 38.6446 35.1753 38.8648 35.2609 39.0702C35.3464 39.2756 35.4718 39.4619 35.6298 39.6186C35.7864 39.7765 35.9728 39.9019 36.1782 39.9875C36.3835 40.073 36.6038 40.1171 36.8262 40.1171C37.0487 40.1171 37.269 40.073 37.4743 39.9875C37.6797 39.9019 37.8661 39.7765 38.0227 39.6186L44.7635 32.8779C44.9973 32.6409 45.1557 32.3399 45.2187 32.013C45.2817 31.6861 45.2464 31.3479 45.1173 31.041Z" fill="white"/>
</svg>
