<svg width="24" height="24" viewBox="0 0 24 24" fill="none" xmlns="http://www.w3.org/2000/svg">
<rect width="24" height="24" rx="12" fill="#F7F5F8"/>
<path fill-rule="evenodd" clip-rule="evenodd" d="M12 13.3332C12.7364 13.3332 13.3333 12.7362 13.3333 11.9998C13.3333 11.2635 12.7364 10.6665 12 10.6665C11.2636 10.6665 10.6667 11.2635 10.6667 11.9998C10.6667 12.7362 11.2636 13.3332 12 13.3332Z" stroke="#5C068C" stroke-linecap="round" stroke-linejoin="round"/>
<path fill-rule="evenodd" clip-rule="evenodd" d="M17.3333 13.3332C18.0697 13.3332 18.6667 12.7362 18.6667 11.9998C18.6667 11.2635 18.0697 10.6665 17.3333 10.6665C16.597 10.6665 16 11.2635 16 11.9998C16 12.7362 16.597 13.3332 17.3333 13.3332Z" stroke="#5C068C" stroke-linecap="round" stroke-linejoin="round"/>
<path fill-rule="evenodd" clip-rule="evenodd" d="M6.66668 13.3332C7.40306 13.3332 8.00001 12.7362 8.00001 11.9998C8.00001 11.2635 7.40306 10.6665 6.66668 10.6665C5.9303 10.6665 5.33334 11.2635 5.33334 11.9998C5.33334 12.7362 5.9303 13.3332 6.66668 13.3332Z" stroke="#5C068C" stroke-linecap="round" stroke-linejoin="round"/>
</svg>
