<svg width="68" height="68" viewBox="0 0 68 68" fill="none" xmlns="http://www.w3.org/2000/svg">
<path d="M64.9089 0.408203H3.09148C1.60955 0.408203 0.408203 1.60955 0.408203 3.09148V64.9089C0.408203 66.3909 1.60955 67.5922 3.09148 67.5922H64.9089C66.3909 67.5922 67.5922 66.3909 67.5922 64.9089V3.09148C67.5922 1.60955 66.3909 0.408203 64.9089 0.408203Z" fill="#5F138D"/>
<path d="M13.3871 27.4928V29.9748H18.8774V32.2603H13.3871V36.7149H10.8555V25.208H19.6166V27.4928H13.3871Z" fill="white"/>
<path d="M30.8282 35.7126C30.5057 35.9675 30.1555 36.1854 29.7844 36.362C29.3888 36.5478 28.9721 36.6849 28.5434 36.77C28.0453 36.8679 27.5386 36.9148 27.031 36.9101C26.2244 36.9174 25.4246 36.7608 24.6803 36.4497C23.9791 36.1577 23.3423 35.7304 22.8062 35.1924C22.2748 34.6527 21.8558 34.0129 21.5734 33.3101C21.275 32.574 21.1241 31.7863 21.1293 30.992V30.9594C21.1233 30.167 21.2742 29.3812 21.5734 28.6474C21.8595 27.9443 22.2781 27.3028 22.8062 26.7576C23.3436 26.2072 23.9865 25.771 24.6966 25.4752C25.4686 25.1569 26.2974 24.9991 27.1324 25.0114C27.6257 25.0077 28.1183 25.0516 28.6032 25.1426C29.0172 25.2219 29.4221 25.3431 29.8116 25.5044C30.1652 25.6537 30.5015 25.8411 30.8146 26.0634C31.1188 26.2807 31.4047 26.5227 31.6693 26.7869L30.0564 28.644C29.6444 28.2653 29.1825 27.945 28.6834 27.692C28.1939 27.4568 27.6563 27.3388 27.1133 27.3472C26.6519 27.3429 26.1949 27.4383 25.7737 27.6267C25.3703 27.8074 25.0092 28.0705 24.7136 28.3992C24.4143 28.7336 24.1802 29.121 24.0234 29.5416C23.8568 29.9856 23.7731 30.4565 23.7766 30.9308V30.9635C23.7737 31.4403 23.8573 31.9138 24.0234 32.3609C24.1778 32.7827 24.4083 33.1727 24.7034 33.5114C25.0045 33.852 25.3754 34.1237 25.7909 34.3081C26.2064 34.4924 26.6567 34.585 27.1113 34.5797C27.7691 34.5797 28.3253 34.4591 28.78 34.2179C29.273 33.9497 29.7288 33.6182 30.1359 33.2319L31.7468 34.8592C31.4626 35.1665 31.1555 35.4518 30.8282 35.7126Z" fill="white"/>
<path d="M42.7782 36.7149V29.2023L39.5394 34.1173H39.4714L36.2659 29.252V36.7149H33.7703V25.208H36.4984L39.5231 30.0741L42.5477 25.208H45.2766V36.7149H42.7782Z" fill="white"/>
<path d="M57.4987 34.9395C57.2951 35.3353 56.9962 35.6741 56.629 35.9255C56.2155 36.2042 55.7546 36.405 55.269 36.5178C54.6898 36.6548 54.0961 36.721 53.501 36.715H48.0378V25.208H53.3711C54.552 25.208 55.4788 25.4766 56.1516 26.0138C56.8243 26.551 57.1609 27.2743 57.1614 28.1837V28.2197C57.1661 28.5147 57.1245 28.8087 57.0383 29.0908C56.9617 29.3316 56.8518 29.5604 56.7119 29.7708C56.5788 29.9701 56.4186 30.15 56.2359 30.3053C56.058 30.4578 55.8637 30.5901 55.6566 30.6997C56.3216 30.9522 56.8452 31.2947 57.2274 31.7272C57.6095 32.1596 57.8004 32.7585 57.7999 33.5237V33.5564C57.8116 34.0349 57.7083 34.5092 57.4987 34.9395ZM54.6624 28.6107C54.6624 28.2272 54.5201 27.9341 54.2354 27.7315C53.9507 27.5288 53.5397 27.4275 53.0025 27.4275H50.5035V29.8599H52.8359C53.3949 29.8599 53.8387 29.764 54.1674 29.5722C54.496 29.3805 54.6604 29.0709 54.6604 28.6434L54.6624 28.6107ZM55.3036 33.2136C55.3096 33.0367 55.2722 32.8609 55.1949 32.7017C55.1175 32.5424 55.0024 32.4044 54.8596 32.2997C54.5636 32.0753 54.0876 31.962 53.4316 31.9597H50.5076V34.4914H53.5159C54.0749 34.4914 54.5133 34.39 54.831 34.1874C55.1488 33.9848 55.3075 33.6697 55.307 33.2422L55.3036 33.2136Z" fill="white"/>
<path d="M57.6114 44.0889V49.7234H10.6044V46.7599C10.6043 46.4091 10.6733 46.0617 10.8075 45.7376C10.9417 45.4135 11.1385 45.119 11.3865 44.871C11.6345 44.623 11.929 44.4262 12.2531 44.292C12.5772 44.1578 12.9246 44.0888 13.2754 44.0889H57.6114Z" fill="#FFB717"/>
<path d="M10.6044 51.5479H57.6114V57.1823H13.2754C12.9246 57.1824 12.5771 57.1133 12.253 56.9791C11.9288 56.8449 11.6343 56.6481 11.3863 56.3999C11.1382 56.1518 10.9415 55.8573 10.8073 55.5331C10.6732 55.2089 10.6042 54.8614 10.6044 54.5106V51.5479Z" fill="#FFB717"/>
</svg>
